<?xml version="1.0" encoding="UTF-8" standalone="no"?>
<svg
   version="1.1"
   width="697.92859"
   height="169.70413"
   viewBox="0 0 697.92859 169.70413"
   id="svg40"
   sodipodi:docname="logo-black_web.svg"
   inkscape:version="1.2.2 (732a01da63, 2022-12-09)"
   xmlns:inkscape="http://www.inkscape.org/namespaces/inkscape"
   xmlns:sodipodi="http://sodipodi.sourceforge.net/DTD/sodipodi-0.dtd"
   xmlns="http://www.w3.org/2000/svg"
   xmlns:svg="http://www.w3.org/2000/svg">
  <defs
     id="defs44" />
  <sodipodi:namedview
     id="namedview42"
     pagecolor="#505050"
     bordercolor="#ffffff"
     borderopacity="1"
     inkscape:showpageshadow="0"
     inkscape:pageopacity="0"
     inkscape:pagecheckerboard="1"
     inkscape:deskcolor="#505050"
     showgrid="false"
     inkscape:zoom="0.535"
     inkscape:cx="347.66355"
     inkscape:cy="85.981308"
     inkscape:window-width="1366"
     inkscape:window-height="715"
     inkscape:window-x="-8"
     inkscape:window-y="22"
     inkscape:window-maximized="1"
     inkscape:current-layer="svg40" />
  <g
     transform="matrix(0.7,0,0,0.7,-1.0357025,0.15206749)"
     id="g38">
    <svg
       viewBox="0 0 396 96"
       data-background-color="#883d1a"
       preserveAspectRatio="xMidYMid"
       height="242"
       width="1000"
       version="1.1"
       id="svg36">
      <g
         id="tight-bounds"
         transform="translate(0.24008862,-0.08603839)">
        <svg
           viewBox="0 0 395.52 96.17176"
           height="96.171761"
           width="395.51999"
           version="1.1"
           id="svg31">
          <g
             id="g27">
            <svg
               viewBox="0 0 395.52 96.17176"
               height="96.171761"
               width="395.51999"
               version="1.1"
               id="svg25">
              <g
                 id="g21">
                <svg
                   viewBox="0 0 395.52 96.17176"
                   height="96.171761"
                   width="395.51999"
                   version="1.1"
                   id="svg19">
                  <g
                     id="g17">
                    <svg
                       viewBox="0 0 395.52 96.17176"
                       height="96.171761"
                       width="395.51999"
                       version="1.1"
                       id="svg15">
                      <g
                         id="g13">
                        <svg
                           viewBox="0 0 395.52 96.17176"
                           height="96.171761"
                           width="395.51999"
                           version="1.1"
                           id="svg11">
                          <path
                             d="M 394.594,20.627 C 392.735,10.644 387.435,7.869 387.435,7.869 371.165,-2.413 350.86,-0.197 332.619,1.281 300.414,1.341 268.339,3.537 236.208,4.715 168.767,4.894 100.749,1.94 33.643,9.227 27.339,11.463 -6.54,9.666 1.121,21.905 c 2.008,5.091 9.335,10.741 9.111,15.413 1.004,0.818 2.399,-1.058 2.994,0.12 2.083,3.174 5.485,1.677 8.275,3.553 -3.887,5.012 -1.098,9.184 1.561,13.557 -4.685,1.138 -10.691,0.599 -13.387,4.372 -0.279,2.735 -1.785,2.216 -3.44,2.097 -1.209,-0.08 -3.645,0.219 -3.236,1.078 1.395,2.935 -4.593,4.632 -0.837,7.507 -2.584,3.114 1.786,5.809 1.191,9.184 -0.075,0.678 0.334,1.257 0.985,1.417 2.882,0.859 -1.32,2.536 -0.874,4.353 29.565,12.418 61.64,3.833 91.93,9.543 7.865,-3.993 1.952,1.417 5.095,0.579 2.454,-0.978 4.239,3.075 7.01,0.779 0.428,-0.659 -0.223,-2.217 1.301,-1.917 0.8,0.16 1.507,0.12 1.618,-0.799 0.168,-1.377 -1.301,-0.519 -1.692,-1.238 4.221,-3.633 3.18,5.012 7.14,4.652 -0.186,-1.058 -1.338,-2.575 1.023,-2.376 2.343,-1.517 2.417,-2.775 4.5,0.639 0.074,0.739 0.446,1.258 1.041,1.618 6.508,-3.714 12.979,1.317 19.803,-0.36 4.184,-1.837 8.2,0.998 12.439,0.3 1.488,-0.559 2.994,-1.558 4.426,0.119 17.534,0.36 36.221,-1.138 52.845,0.06 44.421,-2.236 91.892,0.919 138.731,-2.036 11.045,-1.138 22.518,-2.755 33.284,-4.053 0,0 8.721,-3.554 8.721,-19.526 0,-15.972 1.859,-13.976 2.138,-26.693 0.279,-12.718 1.581,-13.237 -0.279,-23.22 z"
                             opacity="1"
                             fill="#ffffff"
                             data-fill-palette-color="tertiary"
                             id="path4" />
                          <g
                             transform="translate(55.76832,26.230667)"
                             id="g9">
                            <svg
                               width="283.98337"
                               viewBox="2.73 -37.700001 257.88998 39.700001"
                               height="43.710426"
                               data-palette-color="#883d1a"
                               version="1.1"
                               id="svg7">
                              <path
                                 d="m 19.87,-6.84 v 0 q 0.39,0.64 0.59,1.22 0.19,0.59 0.19,0.83 v 0 q 0,0.35 -0.12,0.57 -0.12,0.22 -0.32,0.46 v 0 q -1.95,0.83 -3.88,1.54 -1.93,0.71 -3.93,1.39 v 0 q -0.49,0.15 -0.95,0.32 -0.46,0.17 -1,0.27 v 0 q -0.1,0.09 -0.34,0.19 -0.25,0.1 -0.56,0.2 -0.32,0.09 -0.61,0.17 -0.3,0.07 -0.4,0.07 v 0 Q 8.45,0.15 8.35,0.1 8.25,0.05 8.15,0 V 0 Q 7.91,0 7.84,0.17 7.76,0.34 7.52,0.44 v 0 Q 7.28,0.44 7.08,0.46 6.88,0.49 6.74,0.39 v 0 Q 6.35,0.49 6.03,0.73 5.71,0.98 5.32,1.07 v 0 Q 4.59,0.88 4.42,0.9 4.25,0.93 4.05,0.98 v 0 Q 3.71,0.68 3.74,0.15 3.76,-0.39 3.47,-0.73 v 0 q 0,-0.64 -0.1,-0.71 -0.1,-0.07 -0.1,-0.17 v 0 q 0,-0.34 0.05,-0.64 0.05,-0.29 -0.05,-0.63 v 0 q 0.2,-0.83 0.15,-1.61 -0.05,-0.78 0.05,-1.56 v 0 q 0,-0.25 0.02,-0.47 0.03,-0.22 0.03,-0.46 v 0 q 0,-0.73 0.09,-0.91 0.1,-0.17 0.1,-0.41 v 0 q 0,-0.34 -0.02,-0.66 -0.03,-0.32 -0.03,-0.71 v 0 q 0,-0.68 0.03,-1.34 0.02,-0.66 0.02,-1.39 v 0 q 0,-1.86 -0.24,-3.71 -0.25,-1.86 -0.25,-3.71 v 0 q 0,-2.25 -0.24,-4.45 -0.25,-2.19 -0.25,-4.44 v 0 q 0,-0.39 0,-1.1 0,-0.71 0,-1.46 0,-0.76 0.03,-1.44 0.02,-0.69 0.07,-0.98 v 0 q 0,-0.05 0.3,-0.15 0.29,-0.1 0.39,-0.1 v 0 q 0.24,0 0.39,0.13 0.14,0.12 0.34,0.22 v 0 q 0.88,-0.1 1.05,-0.17 0.17,-0.08 0.27,-0.08 v 0 q 0.29,0 0.46,0.15 0.17,0.15 0.27,0.15 v 0 q 0.83,-0.2 0.9,-0.05 0.08,0.14 0.32,0.14 v 0 q 0.63,-0.19 0.78,-0.14 0.15,0.05 0.29,0.05 v 0 q 0.25,0 0.54,-0.18 0.29,-0.17 0.54,-0.26 v 0 q 0.83,-0.25 1.37,-0.49 v 0 q 0.73,-0.44 1.09,-0.59 0.37,-0.15 0.76,-0.34 v 0 q 0.83,-0.34 1.59,-0.71 0.75,-0.36 1.58,-0.76 v 0 q 0.15,0 0.32,-0.02 0.17,-0.02 0.27,-0.12 v 0 q 0.15,0.05 0.32,0.05 0.17,0 0.32,0 v 0 q 0.48,0.19 0.63,0.24 v 0 q 0.2,0.29 0.37,0.56 0.17,0.27 0.41,0.52 v 0 q 0.25,0.43 0.39,0.43 v 0 q 0,0.15 -0.14,0.32 -0.15,0.17 -0.15,0.32 v 0 q 0.39,0.68 0.63,1.27 0.25,0.59 0.25,0.83 v 0 q 0,0.34 -0.1,0.56 -0.1,0.22 -0.24,0.46 v 0 q -1.86,0.88 -3.74,1.74 -1.88,0.85 -3.83,1.68 v 0 q -0.49,0.2 -0.93,0.42 -0.44,0.22 -0.98,0.32 v 0 q -0.09,0.09 -0.44,0.17 -0.34,0.07 -0.53,0.07 v 0 q 0.09,0.83 0.12,1.63 0.02,0.81 0.07,1.64 v 0 q 0.05,0.68 0.17,1.44 0.13,0.76 0.22,1.49 v 0 q 1.61,-0.68 3.2,-1.37 1.59,-0.68 3.2,-1.36 v 0 q 0.29,0.04 0.61,0.09 0.32,0.05 0.61,0.15 v 0 q 0.1,0.1 0.2,0.24 0.09,0.15 0.24,0.25 v 0 q -0.05,0.24 0.32,0.73 0.36,0.49 0.36,0.73 v 0 q 0,0.39 0.1,0.47 0.1,0.07 0.2,0.41 v 0 q 0.04,0.49 0,0.54 v 0 q 0.24,0.24 0.39,0.49 0.14,0.24 0.14,0.58 v 0 q -0.68,0.83 -1.36,1.1 -0.69,0.27 -1.37,0.56 v 0 q -0.25,0.1 -0.51,0.27 -0.27,0.17 -0.52,0.27 v 0 q -0.39,0.15 -0.75,0.27 -0.37,0.12 -0.76,0.32 v 0 q -0.64,0.34 -1.29,0.75 -0.66,0.42 -1.35,0.57 v 0 q -0.53,0.14 -0.71,0.31 -0.17,0.17 -0.56,0.47 v 0 1.31 2.45 q 0,0.48 0,1 0,0.51 -0.05,1.05 v 0 q -0.09,0.49 -0.09,0.83 v 0 0.78 q 0.24,-0.1 0.49,-0.17 0.24,-0.08 0.48,-0.17 v 0 q 0.2,-0.05 0.37,-0.05 0.17,0 0.37,-0.1 v 0 q 0.24,-0.05 0.39,-0.1 0.14,-0.05 0.34,-0.14 v 0 q 0.73,-0.39 1.12,-0.52 0.39,-0.12 0.78,-0.27 v 0 q 0.83,-0.29 1.61,-0.61 0.79,-0.31 1.57,-0.61 v 0 q 0.48,0.1 0.68,-0.14 v 0 q 0.24,0.05 0.41,0.09 0.18,0.05 0.42,0.05 v 0 q 0.59,0.54 0.73,0.83 0.15,0.3 0.39,0.54 v 0 q 0.25,0.44 0.34,0.44 v 0 q 0,0.1 -0.14,0.32 -0.15,0.22 -0.2,0.36 z m 22.46,-30.71 v 0 q 0.39,0 0.56,0.17 0.17,0.17 0.27,0.42 v 0 q 0.49,-0.05 1,0.17 0.52,0.22 0.61,0.41 v 0 q 0.39,0.05 0.49,0.2 0.1,0.14 0.29,0.19 v 0 l 0.54,-0.05 q 0.2,0.2 0.76,0.4 0.56,0.19 0.66,0.43 v 0 q -0.1,0.25 -0.08,0.52 0.03,0.27 0.03,0.61 v 0 q -0.15,0.73 -0.47,1.32 -0.31,0.58 -0.56,1.12 v 0 q -0.14,0.24 -0.22,0.54 -0.07,0.29 -0.17,0.53 v 0 q -0.1,0.2 -0.17,0.37 -0.07,0.17 -0.17,0.37 v 0 q 0,0.24 -0.1,0.51 -0.09,0.27 -0.19,0.51 v 0 q 0,0.29 -0.05,0.42 -0.05,0.12 -0.05,0.22 v 0 q -0.93,2.24 -1.46,4.2 -0.54,1.95 -1.08,3.9 v 0 q -0.24,0.59 -0.49,1.47 -0.24,0.88 -0.61,2.07 -0.36,1.2 -0.78,2.54 -0.41,1.34 -0.78,2.49 -0.37,1.15 -0.63,1.95 -0.27,0.81 -0.32,0.91 v 0 q -0.15,0.83 -0.44,1.68 -0.29,0.86 -0.49,1.78 v 0 q -0.24,0.3 -0.29,0.66 -0.05,0.37 -0.25,0.71 v 0 q -0.39,-0.05 -0.63,0.2 v 0 q -0.05,0.39 0.07,0.73 0.12,0.34 0.12,0.73 v 0 q -0.19,0.54 -0.48,0.69 -0.3,0.14 -0.4,0.48 v 0 q -0.34,-0.09 -0.51,0.1 -0.17,0.2 -0.36,0.2 v 0 q -0.59,-0.15 -0.69,0.19 v 0 q -0.29,-0.1 -0.39,0.07 -0.1,0.18 -0.19,0.22 v 0 q -0.39,0 -0.61,0.18 Q 33.4,0.15 33.1,0.2 v 0 Q 32.91,0.1 32.71,-0.02 32.52,-0.15 32.37,-0.29 v 0 q -0.29,-0.83 -0.54,-1.64 -0.24,-0.8 -0.48,-1.63 v 0 q -0.1,-0.4 -0.25,-0.74 -0.15,-0.34 -0.24,-0.73 v 0 q -0.05,-0.24 -0.05,-0.41 0,-0.18 -0.05,-0.37 v 0 q -0.1,-0.24 -0.2,-0.49 -0.09,-0.24 -0.19,-0.49 v 0 q -0.39,-1.07 -0.59,-2.19 v 0 q -0.24,-0.83 -0.46,-1.64 -0.22,-0.81 -0.42,-1.64 v 0 q -0.14,-0.68 -0.34,-1.44 -0.19,-0.75 -0.49,-1.34 v 0 q -0.09,-0.78 -0.41,-1.49 -0.32,-0.71 -0.32,-1.44 v 0 q -0.24,-0.78 -0.41,-1.56 -0.17,-0.78 -0.42,-1.56 v 0 q -0.1,-0.39 -0.24,-0.74 -0.15,-0.34 -0.25,-0.68 v 0 q -0.14,-0.44 -0.24,-0.93 -0.1,-0.49 -0.2,-0.97 v 0 q -0.14,-0.44 -0.29,-0.86 -0.15,-0.41 -0.29,-0.85 v 0 q -0.25,-0.83 -0.47,-1.64 -0.22,-0.8 -0.46,-1.63 v 0 q -0.24,-0.93 -0.46,-1.84 -0.22,-0.9 -0.76,-1.73 v 0 q -0.15,-0.24 -0.22,-0.56 -0.07,-0.32 -0.22,-0.61 v 0 q 0.1,-0.39 0.05,-0.9 -0.05,-0.52 0.14,-0.81 v 0 q 0.49,0 1.18,-0.02 0.68,-0.03 1.02,0.07 v 0 q 0.2,-0.05 0.32,-0.15 0.12,-0.1 0.32,-0.14 v 0 q 0.29,0.14 0.58,0.14 v 0 q 0.44,0 0.69,-0.19 v 0 q 0.53,0.24 0.58,0.09 0.05,-0.14 0.25,-0.14 v 0 q 0.29,0.1 0.44,0.41 0.14,0.32 0.29,0.56 v 0 q 0.54,0.98 0.8,1.93 0.27,0.96 0.57,2.03 v 0 q 0.34,0.98 0.63,1.93 0.29,0.95 0.54,1.93 v 0 q 0.14,0.49 0.24,0.97 0.1,0.49 0.2,0.98 v 0 q 0.14,0.54 0.34,1 0.19,0.47 0.39,1 v 0 q 0.1,0.54 0.2,1.05 0.09,0.51 0.24,1.05 v 0 q 0.1,0.39 0.24,0.73 0.15,0.35 0.25,0.74 v 0 q 0.1,0.39 0.19,0.8 0.1,0.42 0.2,0.81 v 0 q 0.24,0.97 0.54,1.93 0.29,0.95 0.53,1.93 v 0 q 0.25,-0.15 0.3,-0.54 0.04,-0.39 0.19,-0.64 v 0 q 0.1,-0.58 0.32,-1.27 0.22,-0.68 0.41,-1.27 v 0 q 0.05,-0.24 0.13,-0.43 0.07,-0.2 0.17,-0.44 v 0 q 0.14,-0.3 0.19,-0.61 0.05,-0.32 0.15,-0.66 v 0 q 0.19,-0.69 0.41,-1.37 0.22,-0.68 0.42,-1.37 v 0 q 0.19,-0.63 0.34,-1.32 0.15,-0.68 0.39,-1.27 v 0 q 0.24,-0.53 0.42,-1.02 0.17,-0.49 0.31,-1.03 v 0 q 0.15,-0.53 0.25,-1.07 0.09,-0.54 0.34,-0.98 v 0 q 0.1,-0.24 0.22,-0.56 0.12,-0.32 0.22,-0.61 v 0 q 0.24,-0.78 0.44,-1.56 0.19,-0.78 0.53,-1.56 v 0 q 0.25,-0.69 0.59,-1.32 0.34,-0.64 0.59,-1.32 v 0 q 0.19,-0.49 0.34,-0.64 0.15,-0.14 0.29,-0.29 z m 25.05,30.71 v 0 q 0.39,0.64 0.58,1.22 0.2,0.59 0.2,0.83 v 0 q 0,0.35 -0.12,0.57 -0.13,0.22 -0.32,0.46 v 0 q -1.95,0.83 -3.88,1.54 -1.93,0.71 -3.93,1.39 v 0 q -0.49,0.15 -0.96,0.32 -0.46,0.17 -1,0.27 v 0 q -0.09,0.09 -0.34,0.19 -0.24,0.1 -0.56,0.2 -0.32,0.09 -0.61,0.17 -0.29,0.07 -0.39,0.07 v 0 Q 55.95,0.15 55.85,0.1 55.76,0.05 55.66,0 v 0 q -0.25,0 -0.32,0.17 -0.07,0.17 -0.32,0.27 v 0 q -0.24,0 -0.44,0.02 -0.19,0.03 -0.34,-0.07 v 0 q -0.39,0.1 -0.7,0.34 -0.32,0.25 -0.71,0.34 v 0 Q 52.09,0.88 51.92,0.9 51.75,0.93 51.56,0.98 v 0 q -0.34,-0.3 -0.32,-0.83 0.02,-0.54 -0.27,-0.88 v 0 q 0,-0.64 -0.1,-0.71 -0.09,-0.07 -0.09,-0.17 v 0 q 0,-0.34 0.05,-0.64 0.04,-0.29 -0.05,-0.63 v 0 q 0.19,-0.83 0.14,-1.61 -0.05,-0.78 0.05,-1.56 v 0 q 0,-0.25 0.03,-0.47 0.02,-0.22 0.02,-0.46 v 0 q 0,-0.73 0.1,-0.91 0.1,-0.17 0.1,-0.41 v 0 q 0,-0.34 -0.03,-0.66 -0.02,-0.32 -0.02,-0.71 v 0 q 0,-0.68 0.02,-1.34 0.03,-0.66 0.03,-1.39 v 0 q 0,-1.86 -0.25,-3.71 -0.24,-1.86 -0.24,-3.71 v 0 q 0,-2.25 -0.25,-4.45 -0.24,-2.19 -0.24,-4.44 v 0 q 0,-0.39 0,-1.1 0,-0.71 0,-1.46 0,-0.76 0.02,-1.44 0.03,-0.69 0.08,-0.98 v 0 q 0,-0.05 0.29,-0.15 0.29,-0.1 0.39,-0.1 v 0 q 0.24,0 0.39,0.13 0.15,0.12 0.34,0.22 v 0 q 0.88,-0.1 1.05,-0.17 0.17,-0.08 0.27,-0.08 v 0 q 0.29,0 0.47,0.15 0.17,0.15 0.26,0.15 v 0 q 0.83,-0.2 0.91,-0.05 0.07,0.14 0.31,0.14 v 0 q 0.64,-0.19 0.79,-0.14 0.14,0.05 0.29,0.05 v 0 q 0.24,0 0.54,-0.18 0.29,-0.17 0.53,-0.26 v 0 q 0.83,-0.25 1.37,-0.49 v 0 q 0.73,-0.44 1.1,-0.59 0.36,-0.15 0.76,-0.34 v 0 q 0.83,-0.34 1.58,-0.71 0.76,-0.36 1.59,-0.76 v 0 q 0.15,0 0.32,-0.02 0.17,-0.02 0.27,-0.12 v 0 q 0.14,0.05 0.31,0.05 0.17,0 0.32,0 v 0 q 0.49,0.19 0.63,0.24 v 0 q 0.2,0.29 0.37,0.56 0.17,0.27 0.42,0.52 v 0 q 0.24,0.43 0.39,0.43 v 0 q 0,0.15 -0.15,0.32 -0.15,0.17 -0.15,0.32 v 0 q 0.39,0.68 0.64,1.27 0.24,0.59 0.24,0.83 v 0 q 0,0.34 -0.1,0.56 -0.09,0.22 -0.24,0.46 v 0 q -1.85,0.88 -3.73,1.74 -1.88,0.85 -3.84,1.68 v 0 q -0.49,0.2 -0.93,0.42 -0.43,0.22 -0.97,0.32 v 0 q -0.1,0.09 -0.44,0.17 -0.34,0.07 -0.54,0.07 v 0 q 0.1,0.83 0.12,1.63 0.03,0.81 0.08,1.64 v 0 q 0.05,0.68 0.17,1.44 0.12,0.76 0.22,1.49 v 0 q 1.61,-0.68 3.2,-1.37 1.58,-0.68 3.19,-1.36 v 0 q 0.3,0.04 0.61,0.09 0.32,0.05 0.61,0.15 v 0 q 0.1,0.1 0.2,0.24 0.1,0.15 0.24,0.25 v 0 q -0.04,0.24 0.32,0.73 0.37,0.49 0.37,0.73 v 0 q 0,0.39 0.1,0.47 0.09,0.07 0.19,0.41 v 0 q 0.05,0.49 0,0.54 v 0 q 0.24,0.24 0.39,0.49 0.15,0.24 0.15,0.58 v 0 q -0.69,0.83 -1.37,1.1 -0.68,0.27 -1.37,0.56 v 0 q -0.24,0.1 -0.51,0.27 -0.27,0.17 -0.51,0.27 v 0 q -0.39,0.15 -0.76,0.27 -0.37,0.12 -0.76,0.32 v 0 q -0.63,0.34 -1.29,0.75 -0.66,0.42 -1.34,0.57 v 0 q -0.54,0.14 -0.71,0.31 -0.17,0.17 -0.56,0.47 v 0 1.31 2.45 q 0,0.48 0,1 0,0.51 -0.05,1.05 v 0 q -0.1,0.49 -0.1,0.83 v 0 0.78 q 0.25,-0.1 0.49,-0.17 0.24,-0.08 0.49,-0.17 v 0 q 0.19,-0.05 0.36,-0.05 0.18,0 0.37,-0.1 v 0 q 0.24,-0.05 0.39,-0.1 0.15,-0.05 0.34,-0.14 v 0 q 0.74,-0.39 1.13,-0.52 0.39,-0.12 0.78,-0.27 v 0 q 0.83,-0.29 1.61,-0.61 0.78,-0.31 1.56,-0.61 v 0 q 0.49,0.1 0.68,-0.14 v 0 q 0.25,0.05 0.42,0.09 0.17,0.05 0.41,0.05 v 0 q 0.59,0.54 0.74,0.83 0.14,0.3 0.39,0.54 v 0 q 0.24,0.44 0.34,0.44 v 0 q 0,0.1 -0.15,0.32 -0.14,0.22 -0.19,0.36 z m 26.31,-29.83 v 0 q 0.54,0 0.78,0.15 v 0 q 0.25,0.48 0.32,0.85 0.08,0.37 0.08,0.86 v 0 q 0.04,0.73 0.02,1.05 -0.02,0.31 -0.07,0.65 v 0 q -0.05,0.79 -0.05,1.49 0,0.71 0,1.49 v 0 q 0,1.71 0.05,3.47 0.05,1.76 0.05,3.47 v 0 q 0,0.68 -0.03,1.34 -0.02,0.66 -0.02,1.34 v 0 q 0,0.15 0.02,0.32 0.03,0.17 0.03,0.32 v 0 q 0,0.44 -0.03,0.85 -0.02,0.42 -0.02,0.81 v 0 q 0,0.19 0,0.34 0,0.15 0.05,0.39 v 0 q -0.1,0.39 -0.1,0.54 v 0 q 0,0.78 0.05,1.58 0.05,0.81 0.05,1.59 v 0 q 0,0.73 0.02,1.42 0.02,0.68 0.02,1.41 v 0 q 0,0.39 -0.02,0.83 -0.02,0.44 -0.02,0.88 v 0 q 0,1.03 0.04,2.08 0.05,1.05 0.1,2.07 v 0 q 0,0.69 0,1.34 0,0.66 0.1,1.35 v 0 q 0,0.78 -0.07,1.14 -0.08,0.37 -0.17,0.71 v 0 q -0.4,0.1 -0.52,0.08 -0.12,-0.03 -0.27,-0.03 v 0 q -0.68,0.2 -0.87,0.37 -0.2,0.17 -0.44,0.36 v 0 q -0.2,0 -0.47,0.03 -0.27,0.02 -0.41,0.17 v 0 Q 91.64,0.34 91.5,0.39 91.35,0.44 91.2,0.44 v 0 q -0.68,0.05 -0.92,0.17 -0.25,0.12 -0.69,0.12 v 0 q -0.39,-0.63 -0.58,-1 -0.2,-0.36 -0.64,-0.32 v 0 q -0.63,-0.97 -0.9,-2.05 -0.27,-1.07 -0.91,-1.95 v 0 q -0.04,-0.39 -0.14,-0.49 -0.1,-0.1 -0.2,-0.39 v 0 Q 86.03,-5.86 85.88,-6.3 85.73,-6.74 85.49,-7.13 v 0 q -0.39,-0.83 -0.78,-1.63 -0.39,-0.81 -0.73,-1.69 v 0 q -0.15,-0.39 -0.25,-0.8 -0.09,-0.42 -0.24,-0.81 v 0 q -0.1,-0.2 -0.22,-0.39 -0.12,-0.2 -0.22,-0.34 v 0 q -0.29,-0.54 -0.56,-1.08 -0.27,-0.53 -0.61,-1.07 v 0 q -0.1,-0.25 -0.27,-0.47 -0.17,-0.22 -0.37,-0.46 v 0 q -0.14,-0.34 -0.27,-0.68 -0.12,-0.34 -0.26,-0.69 v 0 q -0.1,-0.29 -0.3,-0.61 -0.19,-0.31 -0.29,-0.61 v 0 q -0.1,-0.24 -0.15,-0.49 -0.05,-0.24 -0.29,-0.43 v 0 q -0.34,0.58 -0.34,0.78 v 0 q -0.05,0.58 -0.08,0.95 -0.02,0.36 -0.02,0.66 v 0 q 0,0.34 0.07,0.66 0.08,0.31 0.08,0.61 v 0 q 0.09,1.17 0.14,2.37 0.05,1.19 0.05,2.36 v 0 q -0.05,0.93 -0.02,1.42 0.02,0.49 0.07,0.98 v 0 q 0.05,0.48 0.03,1 -0.03,0.51 0.02,1 v 0 q 0,1.12 0.02,2.17 0.03,1.05 0.03,2.17 v 0 1.18 q 0,0.53 -0.15,0.97 v 0 q -0.73,0 -0.95,-0.05 -0.22,-0.05 -0.46,-0.14 v 0 q -0.3,0.05 -0.47,0.22 -0.17,0.17 -0.41,0.31 v 0 Q 76.75,0.2 76.7,0.27 76.65,0.34 76.51,0.44 v 0 q -0.15,0.05 -0.27,0 -0.12,-0.05 -0.27,-0.05 v 0 q -0.39,-0.1 -0.64,-0.1 v 0 q -0.29,0.1 -0.56,0.2 -0.27,0.1 -0.56,0.14 v 0 Q 73.92,0.1 73.87,-0.63 73.82,-1.37 73.48,-1.9 v 0 q 0.1,-0.2 0.12,-0.25 0.03,-0.05 0.03,-0.29 v 0 q 0,-1.12 -0.05,-2.25 -0.05,-1.12 -0.05,-2.24 v 0 q 0,-0.93 -0.12,-1.81 -0.13,-0.88 -0.13,-1.81 v 0 q 0,-0.29 0.05,-0.58 0.05,-0.3 0.05,-0.64 v 0 q 0,-0.14 -0.02,-0.29 -0.03,-0.15 -0.03,-0.24 v 0 q -0.1,-0.88 -0.12,-1.81 -0.02,-0.93 -0.02,-1.86 v 0 q -0.05,-0.53 -0.08,-1.12 -0.02,-0.59 -0.02,-1.22 v 0 q 0,-0.24 0.05,-0.54 0.05,-0.29 0.05,-0.58 v 0 -2.05 q -0.1,-0.59 -0.08,-0.79 0.03,-0.19 0.03,-0.39 v 0 q 0,-0.44 -0.08,-0.85 -0.07,-0.42 -0.07,-0.9 v 0 q 0,-0.35 0.07,-0.66 0.08,-0.32 0.08,-0.66 v 0 q 0,-0.73 -0.08,-1.42 -0.07,-0.68 -0.07,-1.41 v 0 -4.15 q 0,-0.35 -0.05,-0.69 -0.05,-0.34 -0.05,-0.73 v 0 q 0.3,-0.68 0.54,-0.71 0.24,-0.02 0.44,-0.17 v 0 q 0.54,0.1 0.93,-0.1 v 0 q 0.63,0.05 0.78,-0.14 v 0 q 0.1,0.09 0.27,0.07 0.17,-0.03 0.31,0.02 v 0 q 0.15,-0.09 0.25,-0.19 0.1,-0.1 0.29,-0.2 v 0 q 0.54,-0.29 0.64,-0.36 0.09,-0.08 0.24,-0.17 v 0 q 0.24,0 0.32,0.14 0.07,0.15 0.32,0.15 v 0 q 0.09,0.19 0.24,0.39 0.15,0.19 0.34,0.29 v 0 q 0.39,0.83 0.93,1.42 v 0 q 0.44,1.27 1,2.44 0.56,1.17 1.2,2.34 v 0 q 0,0.15 0.04,0.37 0.05,0.22 0.1,0.32 v 0 q 0.25,0.53 0.71,1.39 0.46,0.85 0.81,1.39 v 0 q 0.09,0.2 0.24,0.34 0.15,0.15 0.24,0.34 v 0 q 0.15,0.25 0.25,0.54 0.1,0.29 0.24,0.54 v 0 q 0.25,0.58 0.56,1.15 0.32,0.56 0.66,1.14 v 0 q 0.1,0.3 0.22,0.59 0.13,0.29 0.27,0.59 v 0 q 0.39,0.87 0.71,1.34 0.32,0.46 0.46,1 v 0 q 0.35,0.39 0.54,0.85 0.2,0.47 0.59,0.76 v 0 q 0.05,-0.24 0.09,-1.44 0.05,-1.2 0.05,-2.61 0,-1.42 0,-2.69 0,-1.27 0,-1.71 v 0 q 0,-1.32 -0.05,-2.61 -0.04,-1.29 -0.04,-2.56 v 0 q 0,-1.03 0.02,-2.08 0.02,-1.05 0.07,-2.07 v 0 q 0.05,-0.54 0.03,-1 -0.03,-0.47 0.02,-0.96 v 0 q 0.05,-0.24 0.2,-0.48 0.14,-0.25 0.24,-0.49 v 0 q 0.64,-0.1 0.98,0.24 v 0 q 0.29,-0.15 0.71,-0.15 0.41,0 0.7,-0.04 v 0 q 0.39,-0.05 0.44,-0.08 0.05,-0.02 0.15,-0.02 v 0 q 0.2,0.1 0.37,0.14 0.17,0.05 0.41,0.15 v 0 q 0.44,-0.15 0.73,0.05 z m 27.49,1.76 v 0 q -0.1,0.19 -0.07,0.39 0.02,0.19 0.02,0.44 v 0 q -0.1,0.58 0,0.58 0.1,0 0.1,0.1 v 0 l -0.34,0.49 q 0,0.29 -0.12,0.54 -0.13,0.24 -0.08,0.58 v 0 q -0.14,0.25 -0.27,0.49 -0.12,0.25 -0.36,0.49 v 0 h -0.64 q -0.53,0 -1.14,0.07 -0.61,0.08 -1.2,0.08 v 0 q -0.1,0 -0.24,-0.03 -0.15,-0.02 -0.3,-0.02 v 0 q -0.09,0 -0.24,0.02 -0.15,0.03 -0.34,0.03 v 0 q -0.74,0 -1.44,-0.08 -0.71,-0.07 -1.49,-0.07 v 0 q -0.2,0 -0.39,0 -0.2,0 -0.44,0.05 v 0 q -0.05,0.83 -0.08,1.68 -0.02,0.86 -0.02,1.74 v 0 q 0,0.24 -0.05,0.51 -0.05,0.27 -0.05,0.51 v 0 q -0.05,0.64 -0.07,1.22 -0.03,0.59 -0.03,1.22 v 0 q 0,1.37 0.03,2.74 0.02,1.36 0.07,2.78 v 0 q 0.05,0.73 0.1,1.42 0.05,0.68 0.05,1.41 v 0 q 0,1.66 -0.05,3.3 -0.05,1.63 -0.05,3.29 v 0 q 0,0.54 -0.05,1.01 -0.05,0.46 -0.05,1 v 0 q 0,1.12 0.05,2.24 0.05,1.13 0.05,2.25 v 0 q 0,0.54 -0.02,1.07 -0.03,0.54 -0.03,1.08 v 0 q -0.24,0.39 -0.34,0.68 -0.1,0.29 -0.59,0.29 v 0 q -0.34,-0.09 -0.31,-0.22 0.02,-0.12 -0.08,-0.22 v 0 q -0.44,-0.04 -0.66,0.08 -0.22,0.12 -0.51,0.22 v 0 q -0.14,-0.05 -0.32,-0.05 -0.17,0 -0.31,0 v 0 q -0.1,0 -0.2,0.07 -0.1,0.07 -0.44,0.07 v 0 q -0.29,0.05 -0.34,-0.09 -0.05,-0.15 -0.29,-0.15 v 0 q -0.25,0.15 -0.56,0.22 -0.32,0.07 -0.61,0.07 v 0 q -0.3,-0.19 -0.27,-0.36 0.02,-0.17 -0.08,-0.37 v 0 q -0.05,-0.1 -0.17,-0.27 -0.12,-0.17 -0.22,-0.27 v 0 q 0.1,-0.68 0.15,-1.22 0.05,-0.53 0.05,-1.17 v 0 q 0,-1.27 -0.1,-2.49 -0.1,-1.22 -0.1,-2.49 v 0 q 0,-0.39 0.1,-0.83 0.1,-0.44 0.1,-0.93 v 0 q -0.1,-0.39 -0.05,-0.46 0.05,-0.07 0.05,-0.17 v 0 q 0,-0.29 -0.03,-0.59 -0.02,-0.29 -0.02,-0.58 v 0 q 0,-0.59 0.02,-1.18 0.03,-0.58 0.03,-1.17 v 0 q 0,-0.24 -0.03,-0.51 -0.02,-0.27 -0.02,-0.51 v 0 q -0.05,-0.44 -0.03,-0.93 0.03,-0.49 0.03,-0.98 v 0 q 0,-2.34 -0.07,-4.64 -0.08,-2.29 -0.08,-4.63 v 0 q 0,-1.13 0.12,-2.3 0.13,-1.17 0.13,-2.34 v 0 q 0,-0.15 -0.1,-0.39 -0.1,-0.25 -0.2,-0.35 v 0 q -0.24,0 -0.46,-0.02 -0.22,-0.02 -0.46,-0.02 v 0 q -0.54,0 -1.03,0.14 v 0 q -0.93,0.05 -1.78,0.12 -0.86,0.08 -1.73,0.13 v 0 q -0.59,-0.05 -0.71,-0.03 -0.12,0.03 -0.27,0.03 v 0 q -0.39,0 -0.59,-0.2 v 0 -0.63 q -0.29,-0.59 -0.24,-0.64 0.05,-0.05 0.05,-0.14 v 0 q 0,-0.15 -0.27,-0.32 -0.27,-0.17 -0.27,-0.56 v 0 q -0.05,-0.39 -0.19,-0.59 -0.15,-0.2 -0.15,-0.39 v 0 q 0,-0.34 0.15,-0.78 v 0 q 0.43,-0.25 0.85,-0.34 0.41,-0.1 0.95,-0.25 v 0 q 0.29,-0.1 0.54,-0.19 0.24,-0.1 0.54,-0.15 v 0 q 0.34,-0.05 0.68,-0.05 0.34,0 0.68,-0.05 v 0 q 0.74,-0.14 1.54,-0.24 0.81,-0.1 1.54,-0.1 v 0 q 0.68,0 1.37,0.17 0.68,0.17 1.22,0.17 v 0 q 0.78,0 1.49,0.1 0.7,0.1 1.49,0.1 v 0 q 0.09,0 0.31,0.07 0.22,0.07 0.52,0.07 v 0 h 4.73 q 0.39,0.1 0.56,0.05 0.17,-0.05 0.32,-0.05 v 0 q 0.39,0 0.73,0.05 0.35,0.05 0.74,0.05 v 0 q 0.34,0 0.53,-0.05 v 0 q 0.39,0.05 0.74,0.22 0.34,0.17 0.78,0.17 v 0 q 0.19,0.15 0.29,0.37 0.1,0.22 0.34,0.32 z m 17.43,29.29 v 0 q -0.1,0.3 -0.1,0.54 v 0 q 0,0.29 0.08,0.59 0.07,0.29 0.07,0.58 v 0 q -0.1,0.88 -0.15,1.08 v 0 q -0.29,0.24 -1.19,0.56 -0.91,0.32 -2.15,0.63 -1.25,0.32 -2.69,0.64 -1.44,0.32 -2.76,0.61 -1.31,0.29 -2.41,0.51 -1.1,0.22 -1.64,0.32 v 0 q -0.24,0.05 -0.46,0.12 -0.22,0.07 -0.47,0.17 v 0 q -0.24,0.05 -0.48,0.03 -0.25,-0.03 -0.49,0.07 v 0 q -0.15,0 -0.27,-0.15 -0.12,-0.14 -0.22,-0.24 v 0 q 0,-0.29 -0.1,-0.44 -0.1,-0.15 -0.22,-0.24 -0.12,-0.1 -0.22,-0.22 -0.1,-0.13 -0.1,-0.42 v 0 q -0.09,-0.39 -0.26,-0.61 -0.18,-0.22 -0.18,-0.41 v 0 q -0.19,-0.64 -0.19,-1.13 v 0 q 0,-0.24 0.05,-0.39 0.05,-0.14 0.14,-0.29 v 0 q 0.3,-0.1 0.44,-0.25 0.15,-0.14 0.39,-0.24 v 0 q 0.3,-0.15 0.83,-0.27 0.54,-0.12 1.18,-0.27 0.63,-0.14 1.22,-0.29 0.58,-0.15 0.97,-0.29 v 0 q 0.15,-0.05 0.3,-0.05 0.14,0 0.24,-0.1 v 0 q -0.1,-0.78 -0.12,-1.56 -0.03,-0.78 -0.12,-1.51 v 0 q 0,-0.35 -0.05,-0.69 -0.05,-0.34 -0.05,-0.63 v 0 l 0.05,-1.03 q 0,-1.85 -0.15,-3.71 -0.15,-1.86 -0.15,-3.71 v 0 -1.66 q 0,-0.39 -0.02,-0.73 -0.02,-0.34 -0.02,-0.74 v 0 q 0,-0.92 0.02,-1.78 0.02,-0.85 0.02,-1.78 v 0 -4.49 q -1.07,-0.25 -2,0.02 -0.92,0.27 -1.9,0.37 v 0 q -0.34,-0.34 -0.39,-0.73 v 0 q -0.39,-0.54 -0.54,-0.69 -0.15,-0.14 -0.34,-0.83 v 0 q -0.34,-0.68 -0.56,-0.85 -0.22,-0.17 -0.22,-0.56 v 0 q 0,-0.25 0.12,-0.35 0.12,-0.09 0.22,-0.34 v 0 q 0.44,-0.19 0.51,-0.27 0.08,-0.07 0.17,-0.12 v 0 q 0.49,-0.34 1.13,-0.49 0.63,-0.14 1.22,-0.34 v 0 q 0.49,-0.14 0.92,-0.34 0.44,-0.2 0.98,-0.34 v 0 q 0.64,-0.2 1.27,-0.39 0.64,-0.2 1.22,-0.34 v 0 q 0.39,-0.1 0.76,-0.08 0.36,0.03 0.76,-0.22 v 0 q 0.63,0.1 1.34,-0.02 0.71,-0.12 1.54,-0.32 0.83,-0.19 1.61,-0.34 0.78,-0.15 1.17,-0.24 v 0 q 0.24,0.09 0.34,0.24 0.1,0.15 0.29,0.19 v 0 q 0.05,0.15 0.1,0.37 0.05,0.22 0.2,0.32 v 0 q 0,0.54 0.24,0.78 v 0 q -0.05,0.49 0.17,1.1 0.22,0.61 0.22,1.15 v 0 q -0.24,0.73 -0.8,0.92 -0.57,0.2 -1.22,0.35 -0.66,0.14 -1.3,0.26 -0.63,0.13 -1.02,0.27 v 0 q 0,0.69 0.02,1.42 0.02,0.73 0.02,1.46 v 0 q 0,0.69 -0.02,1.37 -0.02,0.68 -0.02,1.37 v 0 q 0,1.02 -0.03,2.1 -0.02,1.07 -0.02,2.15 v 0 q 0,1.51 0.05,3.02 0.04,1.52 0.14,3.03 v 0 q 0.05,0.24 0.05,0.73 v 0 q 0,1.96 0.07,3.84 0.08,1.88 0.27,3.88 v 0 q 0.64,0.05 0.98,-0.2 v 0 q 0.24,0 0.46,-0.1 0.22,-0.09 0.42,-0.19 v 0 q 0.29,-0.05 0.8,-0.17 0.52,-0.12 0.66,-0.12 v 0 q 0.44,0.05 0.54,0 v 0 q 0.15,0.29 0.44,0.44 v 0 q 0.1,0.44 0.17,0.85 0.07,0.42 0.22,0.85 z m 24.66,-29.29 v 0 q -0.1,0.19 -0.08,0.39 0.03,0.19 0.03,0.44 v 0 q -0.1,0.58 0,0.58 0.1,0 0.1,0.1 v 0 l -0.35,0.49 q 0,0.29 -0.12,0.54 -0.12,0.24 -0.07,0.58 v 0 q -0.15,0.25 -0.27,0.49 -0.12,0.25 -0.37,0.49 v 0 h -0.63 q -0.54,0 -1.15,0.07 -0.61,0.08 -1.2,0.08 v 0 q -0.09,0 -0.24,-0.03 -0.15,-0.02 -0.29,-0.02 v 0 q -0.1,0 -0.25,0.02 -0.14,0.03 -0.34,0.03 v 0 q -0.73,0 -1.44,-0.08 -0.71,-0.07 -1.49,-0.07 v 0 q -0.19,0 -0.39,0 -0.19,0 -0.44,0.05 v 0 q -0.05,0.83 -0.07,1.68 -0.03,0.86 -0.03,1.74 v 0 q 0,0.24 -0.04,0.51 -0.05,0.27 -0.05,0.51 v 0 q -0.05,0.64 -0.08,1.22 -0.02,0.59 -0.02,1.22 v 0 q 0,1.37 0.02,2.74 0.03,1.36 0.08,2.78 v 0 q 0.05,0.73 0.09,1.42 0.05,0.68 0.05,1.41 v 0 q 0,1.66 -0.05,3.3 -0.04,1.63 -0.04,3.29 v 0 q 0,0.54 -0.05,1.01 -0.05,0.46 -0.05,1 v 0 q 0,1.12 0.05,2.24 0.05,1.13 0.05,2.25 v 0 q 0,0.54 -0.03,1.07 -0.02,0.54 -0.02,1.08 v 0 q -0.25,0.39 -0.35,0.68 -0.09,0.29 -0.58,0.29 v 0 q -0.34,-0.09 -0.32,-0.22 0.03,-0.12 -0.07,-0.22 v 0 q -0.44,-0.04 -0.66,0.08 -0.22,0.12 -0.51,0.22 v 0 q -0.15,-0.05 -0.32,-0.05 -0.17,0 -0.32,0 v 0 q -0.1,0 -0.19,0.07 -0.1,0.07 -0.44,0.07 v 0 q -0.3,0.05 -0.34,-0.09 -0.05,-0.15 -0.3,-0.15 v 0 q -0.24,0.15 -0.56,0.22 -0.32,0.07 -0.61,0.07 v 0 q -0.29,-0.19 -0.27,-0.36 0.03,-0.17 -0.07,-0.37 v 0 q -0.05,-0.1 -0.17,-0.27 -0.12,-0.17 -0.22,-0.27 v 0 q 0.1,-0.68 0.14,-1.22 0.05,-0.53 0.05,-1.17 v 0 q 0,-1.27 -0.09,-2.49 -0.1,-1.22 -0.1,-2.49 v 0 q 0,-0.39 0.1,-0.83 0.09,-0.44 0.09,-0.93 v 0 q -0.09,-0.39 -0.05,-0.46 0.05,-0.07 0.05,-0.17 v 0 q 0,-0.29 -0.02,-0.59 -0.03,-0.29 -0.03,-0.58 v 0 q 0,-0.59 0.03,-1.18 0.02,-0.58 0.02,-1.17 v 0 q 0,-0.24 -0.02,-0.51 -0.03,-0.27 -0.03,-0.51 v 0 q -0.04,-0.44 -0.02,-0.93 0.02,-0.49 0.02,-0.98 v 0 q 0,-2.34 -0.07,-4.64 -0.07,-2.29 -0.07,-4.63 v 0 q 0,-1.13 0.12,-2.3 0.12,-1.17 0.12,-2.34 v 0 q 0,-0.15 -0.1,-0.39 -0.09,-0.25 -0.19,-0.35 v 0 q -0.25,0 -0.46,-0.02 -0.22,-0.02 -0.47,-0.02 v 0 q -0.54,0 -1.02,0.14 v 0 q -0.93,0.05 -1.79,0.12 -0.85,0.08 -1.73,0.13 v 0 q -0.59,-0.05 -0.71,-0.03 -0.12,0.03 -0.27,0.03 v 0 q -0.39,0 -0.58,-0.2 v 0 -0.63 q -0.3,-0.59 -0.25,-0.64 0.05,-0.05 0.05,-0.14 v 0 q 0,-0.15 -0.27,-0.32 -0.26,-0.17 -0.26,-0.56 v 0 q -0.05,-0.39 -0.2,-0.59 -0.15,-0.2 -0.15,-0.39 v 0 q 0,-0.34 0.15,-0.78 v 0 q 0.44,-0.25 0.85,-0.34 0.42,-0.1 0.96,-0.25 v 0 q 0.29,-0.1 0.53,-0.19 0.25,-0.1 0.54,-0.15 v 0 q 0.34,-0.05 0.68,-0.05 0.35,0 0.69,-0.05 v 0 q 0.73,-0.14 1.54,-0.24 0.8,-0.1 1.53,-0.1 v 0 q 0.69,0 1.37,0.17 0.68,0.17 1.22,0.17 v 0 q 0.78,0 1.49,0.1 0.71,0.1 1.49,0.1 v 0 q 0.1,0 0.32,0.07 0.22,0.07 0.51,0.07 v 0 h 4.74 q 0.39,0.1 0.56,0.05 0.17,-0.05 0.32,-0.05 v 0 q 0.39,0 0.73,0.05 0.34,0.05 0.73,0.05 v 0 q 0.34,0 0.54,-0.05 v 0 q 0.39,0.05 0.73,0.22 0.34,0.17 0.78,0.17 v 0 q 0.2,0.15 0.29,0.37 0.1,0.22 0.35,0.32 z m 22.65,0.34 v 0 q -0.54,0.98 -1.22,2.29 -0.68,1.32 -1.07,2.3 v 0 q -0.15,0.34 -0.27,0.66 -0.13,0.32 -0.27,0.66 v 0 q -0.25,0.73 -0.61,1.39 -0.37,0.66 -0.66,1.39 v 0 q -0.44,0.98 -0.9,1.98 -0.47,1 -0.91,2.07 v 0 q -0.49,0.98 -0.76,1.69 -0.26,0.71 -0.56,1.44 -0.29,0.73 -0.51,1.44 -0.22,0.71 -0.37,1.29 v 0 q -0.43,0.78 -0.73,1.18 v 0 q -0.1,0.87 -0.19,1.75 -0.1,0.88 -0.1,1.81 v 0 q 0,0.44 0.07,0.85 0.08,0.42 0.12,0.86 v 0 q 0.05,0.63 0.03,1.24 -0.03,0.61 0.02,1.25 v 0 q 0.05,1.22 0.13,2.42 0.07,1.19 0.12,2.46 v 0 q 0.05,0.88 -0.08,1.49 -0.12,0.61 -0.07,1.25 v 0 q -0.15,0.09 -0.32,0.14 -0.17,0.05 -0.31,0.15 v 0 q -0.54,0 -0.71,-0.03 -0.17,-0.02 -0.32,0.08 v 0 q -0.44,-0.3 -0.49,-0.27 -0.05,0.02 -0.1,0.02 v 0 Q 174.3,0.49 174.25,0.39 174.2,0.29 174.05,0.2 v 0 q -0.53,0 -0.87,0.14 v 0 q -0.15,-0.1 -0.25,-0.19 -0.1,-0.1 -0.24,-0.2 v 0 q -0.44,-0.05 -0.73,-0.12 -0.3,-0.07 -0.49,-0.17 v 0 q -0.15,-0.39 -0.32,-0.69 -0.17,-0.29 -0.17,-0.78 v 0 q 0,-0.39 0.1,-0.73 0.09,-0.34 0.14,-0.73 v 0 q 0,-0.25 -0.02,-0.44 -0.03,-0.2 -0.03,-0.44 v 0 q 0,-0.24 0.1,-0.64 v 0 q -0.14,-1.12 -0.12,-2.36 0.02,-1.25 0.02,-2.37 v 0 q 0,-1.12 -0.19,-2.1 v 0 q 0.05,-0.64 0,-0.9 -0.05,-0.27 -0.05,-0.57 v 0 q 0,-0.24 0.05,-0.51 0.05,-0.27 0.05,-0.51 v 0 q 0,-0.05 -0.08,-0.51 -0.07,-0.47 -0.17,-0.98 -0.09,-0.51 -0.19,-0.98 -0.1,-0.46 -0.1,-0.56 v 0 q -0.49,-0.88 -0.73,-1.66 -0.25,-0.78 -0.54,-1.32 v 0 q -0.19,-0.39 -0.39,-0.78 -0.2,-0.39 -0.34,-0.83 v 0 q -0.1,-0.24 -0.17,-0.54 -0.08,-0.29 -0.17,-0.53 v 0 q -0.2,-0.39 -0.37,-0.86 -0.17,-0.46 -0.41,-0.75 v 0 q -0.2,-0.44 -0.37,-0.81 -0.17,-0.37 -0.17,-0.71 v 0 q -0.15,-0.58 -0.47,-1.05 -0.31,-0.46 -0.56,-0.95 v 0 q -0.14,-0.29 -0.22,-0.54 -0.07,-0.24 -0.17,-0.49 v 0 q -0.1,-0.19 -0.27,-0.48 -0.17,-0.3 -0.36,-0.44 v 0 q -0.1,-0.44 -0.34,-0.78 -0.25,-0.35 -0.35,-0.79 v 0 q -0.24,-0.34 -0.53,-0.68 v 0 q -0.2,-0.73 -0.54,-1.34 -0.34,-0.61 -0.64,-1.3 v 0 q 0.2,-1.02 1.13,-1.27 v 0 q 0.49,-0.58 0.58,-0.63 0.1,-0.05 0.44,-0.05 v 0 q 0.3,-0.24 0.59,-0.41 0.29,-0.17 0.68,-0.08 v 0 q 0.05,-0.19 0.27,-0.34 0.22,-0.15 0.42,-0.15 v 0 q 0.29,0 0.51,0.3 0.22,0.29 0.46,0.44 v 0 q 0.39,0.68 0.81,1.32 0.41,0.63 0.71,1.31 v 0 q 0.34,0.69 0.61,1.37 0.27,0.68 0.8,1.32 v 0 q 0.25,0.98 0.76,1.83 0.51,0.85 0.85,1.83 v 0 q 0.25,0.59 0.57,1.15 0.31,0.56 0.56,1.2 v 0 q 0.14,0.29 0.24,0.58 0.1,0.29 0.2,0.59 v 0 q 0.09,0.24 0.19,0.63 0.1,0.39 0.25,0.64 v 0 q 0.34,-0.35 0.58,-0.88 v 0 q 0.34,-0.69 0.71,-1.3 0.37,-0.61 0.66,-1.29 v 0 q 0.39,-0.63 0.56,-1.32 0.17,-0.68 0.42,-1.37 v 0 q 0.09,-0.24 0.22,-0.48 0.12,-0.25 0.22,-0.54 v 0 q 0.14,-0.29 0.24,-0.59 0.1,-0.29 0.19,-0.58 v 0 q 0.35,-0.93 0.76,-1.83 0.42,-0.91 0.86,-1.84 v 0 q 0.04,-0.14 0.22,-0.43 0.17,-0.3 0.39,-0.61 0.22,-0.32 0.41,-0.57 0.2,-0.24 0.34,-0.34 v 0 q 0.1,-0.1 0.32,-0.12 0.22,-0.02 0.37,-0.07 v 0 q 0.44,0 0.63,0.24 v 0 q 0.59,0.24 0.88,0.34 0.29,0.1 0.44,0.44 v 0 q 0.73,0.49 1.1,0.56 0.36,0.08 0.56,0.42 v 0 q 0.54,0.34 0.63,0.49 0.1,0.14 0.2,0.29 z m 4,27.83 v 0 q 0.49,-0.05 0.71,0.32 0.22,0.37 0.51,0.46 v 0 q 0.44,0.59 0.61,0.76 0.17,0.17 0.12,0.56 v 0 q 0.25,0.1 0.44,0.22 0.2,0.12 0.44,0.32 v 0 q 0.15,0.29 0.15,0.63 v 0 q 0,0.15 0,0.32 0,0.17 -0.05,0.32 v 0 q -0.24,0.24 -0.49,0.46 -0.24,0.22 -0.44,0.51 v 0 q -0.58,0.4 -1.02,0.81 -0.44,0.42 -1.13,0.81 v 0 q -0.29,0.19 -0.53,0.39 -0.25,0.19 -0.64,0.34 v 0 q 0,-0.2 -0.17,-0.27 -0.17,-0.07 -0.27,-0.17 v 0 q 0,-0.59 -0.68,-0.83 v 0 q -0.15,-0.44 -0.46,-0.76 -0.32,-0.32 -0.52,-0.71 v 0 q 0,-0.29 -0.12,-0.44 -0.12,-0.14 -0.22,-0.29 v 0 q -0.49,0 -0.61,-0.34 -0.12,-0.34 -0.12,-0.73 v 0 q 0.1,-0.39 0.24,-0.54 0.15,-0.15 0.25,-0.39 v 0 q 0.53,-0.49 1.27,-1.2 0.73,-0.7 1.27,-1 v 0 q 0.09,-0.1 0.36,-0.12 0.27,-0.02 0.42,-0.02 v 0 h 0.53 q 0.1,0.24 0.18,0.29 0.07,0.05 -0.03,0.29 z m 14.99,-17.09 v 0 q 0.29,-0.68 0.46,-0.85 0.17,-0.17 0.17,-0.56 v 0 q 0.49,-0.98 0.86,-2.03 0.36,-1.05 0.85,-2.08 v 0 q 0.44,-1.07 0.76,-2.12 0.32,-1.05 0.76,-2.12 v 0 q 0.05,-0.2 0.19,-0.59 0.15,-0.39 0.29,-0.83 0.15,-0.44 0.3,-0.81 0.14,-0.36 0.24,-0.51 v 0 q 0.1,-0.14 0.17,-0.27 0.08,-0.12 0.12,-0.27 v 0 q 0.3,0 0.4,0.03 0.09,0.02 0.24,0.02 v 0 q 0.34,0 0.41,0.08 0.08,0.07 0.22,0.17 v 0 q 0.54,0.05 0.86,0.14 0.32,0.1 0.56,0.35 v 0 q 0.68,0.44 1.1,0.53 0.41,0.1 0.66,0.44 v 0 q 1.02,0.1 1.02,1.08 v 0 q -0.24,0.68 -0.56,1.34 -0.32,0.66 -0.56,1.29 v 0 q -0.44,1.42 -0.98,2.71 -0.53,1.3 -1.17,2.57 v 0 q -0.44,0.97 -0.85,2 -0.42,1.02 -0.91,2 v 0 q -0.24,0.83 -0.48,1.37 v 0 q -0.3,0.63 -0.64,1.27 -0.34,0.63 -0.58,1.32 v 0 q -0.25,0.24 -0.4,0.56 -0.14,0.31 -0.34,0.61 v 0 q 0.1,0.44 0.37,0.8 0.27,0.37 0.51,0.81 v 0 q 0.05,0.34 0.2,0.66 0.14,0.32 0.29,0.66 v 0 q 0.59,1.07 1.15,2.41 0.56,1.35 1.15,2.32 v 0 q 0.63,0.98 0.95,1.76 0.31,0.78 0.8,1.76 v 0 q 0.1,0.24 0.25,0.41 0.14,0.18 0.29,0.42 v 0 l 0.44,0.88 q 0.19,0.44 0.46,0.85 0.27,0.42 0.52,0.86 v 0 q 0,0.24 0.04,0.41 0.05,0.17 0.05,0.42 v 0 q -0.34,0.58 -0.46,0.58 -0.12,0 -0.27,0.1 v 0 q -0.88,0.34 -1.12,1.27 v 0 q -0.25,0.1 -0.49,0.15 -0.24,0.05 -0.24,0.39 v 0 q -0.54,0.34 -0.93,0.05 v 0 Q 211.79,1.22 211.6,1.54 211.4,1.86 211.06,2 V 2 Q 210.67,1.76 210.5,1.42 210.33,1.07 210.04,0.78 v 0 q -0.05,-0.34 -0.2,-0.58 -0.15,-0.25 -0.19,-0.54 v 0 q -0.1,-0.15 -0.27,-0.54 -0.17,-0.39 -0.37,-0.78 -0.19,-0.39 -0.39,-0.71 -0.2,-0.32 -0.29,-0.41 v 0 q -0.39,-0.78 -0.66,-1.57 -0.27,-0.78 -0.66,-1.61 v 0 q -0.59,-1.32 -1.2,-2.61 -0.61,-1.29 -1.14,-2.56 v 0 q -0.25,0.05 -0.54,0.51 -0.3,0.46 -0.54,1.05 -0.24,0.59 -0.44,1.15 -0.19,0.56 -0.24,0.85 v 0 q -0.25,0.34 -0.34,0.66 -0.1,0.32 -0.35,0.56 v 0 q -0.24,0.83 -0.58,1.59 -0.34,0.76 -0.73,1.54 v 0 q 0,0.14 -0.05,0.27 -0.05,0.12 -0.05,0.26 v 0 q -0.54,0.88 -1.08,1.79 -0.53,0.9 -0.97,1.88 v 0 q -0.15,0.14 -0.34,0.29 -0.2,0.15 -0.44,0.15 v 0 q -0.35,0 -0.64,-0.27 -0.29,-0.27 -0.54,-0.42 v 0 q -0.88,-0.34 -1.14,-0.71 -0.27,-0.36 -0.96,-0.31 v 0 q -0.24,-0.34 -0.34,-0.3 -0.1,0.05 -0.24,0.05 v 0 q -0.39,-0.14 -0.49,-0.36 -0.1,-0.22 -0.2,-0.37 v 0 q 0,-0.49 -0.04,-0.63 v 0 q 0.04,-0.2 0.12,-0.35 0.07,-0.14 0.12,-0.34 v 0 q 0.54,-0.68 0.81,-1.41 0.26,-0.74 0.8,-1.37 v 0 q 0.15,-0.44 0.39,-0.83 0.25,-0.39 0.34,-0.88 v 0 q 0.35,-0.44 0.59,-0.88 0.24,-0.44 0.39,-0.98 v 0 q 0.1,-0.09 0.15,-0.24 0.05,-0.15 0.14,-0.24 v 0 q 0.15,-0.44 0.34,-0.86 0.2,-0.41 0.3,-0.85 v 0 q 0.1,-0.05 0.39,-0.61 0.29,-0.56 0.61,-1.22 0.32,-0.66 0.58,-1.27 0.27,-0.61 0.37,-0.81 v 0 q 0.34,-0.68 0.68,-1.17 0.35,-0.49 0.59,-1.27 v 0 q -0.15,-0.29 -0.22,-0.59 -0.07,-0.29 -0.32,-0.53 v 0 q 0,-0.54 -0.34,-1.05 -0.34,-0.52 -0.44,-1.05 v 0 q -0.39,-0.64 -0.61,-1.39 -0.22,-0.76 -0.46,-1.45 v 0 q -0.05,-0.19 -0.15,-0.39 -0.1,-0.19 -0.19,-0.39 v 0 q -0.44,-0.83 -0.83,-1.58 -0.39,-0.76 -0.83,-1.54 v 0 q -0.25,-0.49 -0.64,-1.15 -0.39,-0.66 -0.63,-1.15 v 0 q -0.39,-0.92 -0.74,-1.83 -0.34,-0.9 -0.73,-1.83 v 0 q 0,-0.39 -0.14,-0.83 -0.15,-0.44 -0.15,-0.83 v 0 q 0.29,-0.29 0.46,-0.39 0.17,-0.1 0.27,-0.24 v 0 q 0.39,0 0.73,-0.35 v 0 q 0.49,-0.04 0.98,-0.17 0.49,-0.12 0.93,-0.41 v 0 q 0.49,0 0.78,-0.17 0.29,-0.17 0.68,-0.17 v 0 q 0.39,0.09 0.49,0.19 0.1,0.1 0.25,0.2 v 0 q 1.41,3.17 2.83,6.35 1.41,3.17 2.83,6.39 z m 34.71,-10.74 v 0 q -0.53,0.98 -1.22,2.29 -0.68,1.32 -1.07,2.3 v 0 q -0.15,0.34 -0.27,0.66 -0.12,0.32 -0.27,0.66 v 0 q -0.24,0.73 -0.61,1.39 -0.37,0.66 -0.66,1.39 v 0 q -0.44,0.98 -0.9,1.98 -0.47,1 -0.9,2.07 v 0 q -0.49,0.98 -0.76,1.69 -0.27,0.71 -0.56,1.44 -0.3,0.73 -0.52,1.44 -0.22,0.71 -0.36,1.29 v 0 q -0.44,0.78 -0.73,1.18 v 0 q -0.1,0.87 -0.2,1.75 -0.1,0.88 -0.1,1.81 v 0 q 0,0.44 0.08,0.85 0.07,0.42 0.12,0.86 v 0 q 0.05,0.63 0.02,1.24 -0.02,0.61 0.03,1.25 v 0 q 0.05,1.22 0.12,2.42 0.07,1.19 0.12,2.46 v 0 q 0.05,0.88 -0.07,1.49 -0.12,0.61 -0.08,1.25 v 0 q -0.14,0.09 -0.31,0.14 -0.17,0.05 -0.32,0.15 v 0 q -0.54,0 -0.71,-0.03 -0.17,-0.02 -0.32,0.08 v 0 q -0.44,-0.3 -0.48,-0.27 -0.05,0.02 -0.1,0.02 v 0 Q 228,0.49 227.95,0.39 227.9,0.29 227.76,0.2 v 0 q -0.54,0 -0.88,0.14 v 0 q -0.15,-0.1 -0.24,-0.19 -0.1,-0.1 -0.25,-0.2 v 0 q -0.44,-0.05 -0.73,-0.12 -0.29,-0.07 -0.49,-0.17 v 0 q -0.15,-0.39 -0.32,-0.69 -0.17,-0.29 -0.17,-0.78 v 0 q 0,-0.39 0.1,-0.73 0.1,-0.34 0.15,-0.73 v 0 q 0,-0.25 -0.03,-0.44 -0.02,-0.2 -0.02,-0.44 v 0 q 0,-0.24 0.1,-0.64 v 0 q -0.15,-1.12 -0.13,-2.36 0.03,-1.25 0.03,-2.37 v 0 q 0,-1.12 -0.2,-2.1 v 0 q 0.05,-0.64 0,-0.9 -0.05,-0.27 -0.05,-0.57 v 0 q 0,-0.24 0.05,-0.51 0.05,-0.27 0.05,-0.51 v 0 q 0,-0.05 -0.07,-0.51 -0.08,-0.47 -0.17,-0.98 -0.1,-0.51 -0.2,-0.98 -0.1,-0.46 -0.1,-0.56 v 0 q -0.48,-0.88 -0.73,-1.66 -0.24,-0.78 -0.54,-1.32 v 0 q -0.19,-0.39 -0.39,-0.78 -0.19,-0.39 -0.34,-0.83 v 0 q -0.1,-0.24 -0.17,-0.54 -0.07,-0.29 -0.17,-0.53 v 0 q -0.2,-0.39 -0.37,-0.86 -0.17,-0.46 -0.41,-0.75 v 0 q -0.2,-0.44 -0.37,-0.81 -0.17,-0.37 -0.17,-0.71 v 0 q -0.14,-0.58 -0.46,-1.05 -0.32,-0.46 -0.56,-0.95 v 0 q -0.15,-0.29 -0.22,-0.54 -0.08,-0.24 -0.17,-0.49 v 0 q -0.1,-0.19 -0.27,-0.48 -0.17,-0.3 -0.37,-0.44 v 0 q -0.1,-0.44 -0.34,-0.78 -0.25,-0.35 -0.34,-0.79 v 0 q -0.25,-0.34 -0.54,-0.68 v 0 q -0.2,-0.73 -0.54,-1.34 -0.34,-0.61 -0.63,-1.3 v 0 q 0.19,-1.02 1.12,-1.27 v 0 q 0.49,-0.58 0.59,-0.63 0.09,-0.05 0.44,-0.05 v 0 q 0.29,-0.24 0.58,-0.41 0.3,-0.17 0.69,-0.08 v 0 q 0.05,-0.19 0.26,-0.34 0.22,-0.15 0.42,-0.15 v 0 q 0.29,0 0.51,0.3 0.22,0.29 0.47,0.44 v 0 q 0.39,0.68 0.8,1.32 0.42,0.63 0.71,1.31 v 0 q 0.34,0.69 0.61,1.37 0.27,0.68 0.81,1.32 v 0 q 0.24,0.98 0.75,1.83 0.52,0.85 0.86,1.83 v 0 q 0.24,0.59 0.56,1.15 0.32,0.56 0.56,1.2 v 0 q 0.15,0.29 0.24,0.58 0.1,0.29 0.2,0.59 v 0 q 0.1,0.24 0.2,0.63 0.09,0.39 0.24,0.64 v 0 q 0.34,-0.35 0.59,-0.88 v 0 q 0.34,-0.69 0.7,-1.3 0.37,-0.61 0.66,-1.29 v 0 q 0.39,-0.63 0.56,-1.32 0.17,-0.68 0.42,-1.37 v 0 q 0.1,-0.24 0.22,-0.48 0.12,-0.25 0.22,-0.54 v 0 q 0.15,-0.29 0.24,-0.59 0.1,-0.29 0.2,-0.58 v 0 q 0.34,-0.93 0.75,-1.83 0.42,-0.91 0.86,-1.84 v 0 q 0.05,-0.14 0.22,-0.43 0.17,-0.3 0.39,-0.61 0.22,-0.32 0.41,-0.57 0.2,-0.24 0.35,-0.34 v 0 q 0.09,-0.1 0.31,-0.12 0.22,-0.02 0.37,-0.07 v 0 q 0.44,0 0.63,0.24 v 0 q 0.59,0.24 0.88,0.34 0.3,0.1 0.44,0.44 v 0 q 0.74,0.49 1.1,0.56 0.37,0.08 0.56,0.42 v 0 q 0.54,0.34 0.64,0.49 0.1,0.14 0.19,0.29 z m 17.68,-2.69 v 0 q 0.05,0.15 0.46,0.35 0.42,0.19 0.51,0.19 v 0 q 0.69,-0.1 0.81,0.03 0.12,0.12 0.27,0.26 v 0 q 0.19,-0.09 0.31,-0.22 0.13,-0.12 0.37,-0.12 v 0 q 0.25,0.15 0.32,0.42 0.07,0.27 0.22,0.51 v 0 q -0.05,0.63 0,0.81 0.05,0.17 0.05,0.36 v 0 q 0,0.73 -0.44,1.59 -0.44,0.85 -0.64,1.59 v 0 q -0.24,0.24 -0.31,0.53 -0.08,0.3 -0.27,0.54 v 0 q -0.15,0.49 -0.44,0.85 -0.3,0.37 -0.39,0.86 v 0 q -0.05,0.05 -0.22,0.34 -0.17,0.29 -0.37,0.64 -0.19,0.34 -0.37,0.68 -0.17,0.34 -0.22,0.44 v 0 q -0.14,0.24 -0.21,0.46 -0.08,0.22 -0.22,0.42 v 0 q -0.1,0.29 -0.32,0.71 -0.22,0.41 -0.49,0.85 -0.27,0.44 -0.46,0.85 -0.2,0.42 -0.2,0.61 v 0 q -0.34,0.4 -0.39,0.88 v 0 q -1.32,2.49 -2.34,5.11 -1.03,2.61 -2.2,5.15 v 0 q -0.1,0.44 -0.12,0.53 -0.03,0.1 -0.13,0.15 v 0 q -0.14,0.34 -0.34,0.66 -0.19,0.32 -0.29,0.66 v 0 q -0.2,0.54 -0.32,1 -0.12,0.46 -0.46,0.95 v 0 q -0.05,0.3 -0.2,0.56 -0.14,0.27 -0.09,0.57 v 0 q 0.14,0.14 0.46,0.17 0.32,0.02 0.51,0.02 v 0 q 0.3,0 0.59,-0.02 0.29,-0.03 0.58,-0.03 v 0 q 0.3,0 0.54,0.03 0.25,0.02 0.49,0.02 v 0 h 1.22 q 0.2,0 0.37,0.03 0.17,0.02 0.31,0.02 v 0 q 0.54,0 1.15,-0.05 0.61,-0.05 1.2,-0.05 v 0 q 0.34,0 0.73,-0.02 0.39,-0.03 0.78,0.07 v 0 q 0.15,0.05 0.22,0.15 0.07,0.1 0.32,0 v 0 q 0.44,0.44 0.54,0.53 0.09,0.1 0.19,0.2 v 0 q 0,0.2 0.03,0.32 0.02,0.12 0.02,0.27 v 0 q 0,0.53 0.1,0.73 v 0 q -0.3,0.44 -0.2,0.63 v 0 l -0.24,0.54 q 0,0.24 -0.1,0.51 -0.1,0.27 0,0.52 v 0 q -0.24,0.39 -0.32,0.85 -0.07,0.46 -0.31,0.85 v 0 q -0.4,0.15 -0.79,0.13 -0.39,-0.03 -0.78,0.07 v 0 q -0.24,-0.1 -0.68,-0.1 v 0 q -0.39,0 -0.76,0.05 Q 253.98,0 253.59,0 v 0 q -0.15,0 -0.3,-0.02 -0.14,-0.03 -0.29,-0.03 v 0 q -0.54,0.1 -0.56,0.05 -0.03,-0.05 -0.12,-0.05 v 0 q -0.54,0 -1.08,0.03 Q 250.7,0 250.17,0 v 0 q -0.2,0 -0.34,0.05 -0.15,0.05 -0.3,0.05 v 0 q -0.14,0 -0.29,-0.05 Q 249.09,0 248.95,0 v 0 q -0.25,0 -0.54,0.05 -0.29,0.05 -0.59,0.05 v 0 q -0.14,0 -0.29,-0.03 -0.15,-0.02 -0.29,-0.02 v 0 q -0.25,0 -0.49,0.1 -0.24,0.09 -0.54,0 v 0 l -0.68,0.09 q -0.78,0 -1.54,0.1 -0.76,0.1 -1.54,0.1 v 0 q -0.44,0 -0.58,-0.05 v 0 q -0.25,-0.19 -0.59,-0.24 -0.34,-0.05 -0.63,-0.2 v 0 q -0.05,-0.39 -0.35,-0.58 -0.29,-0.2 -0.53,-0.44 v 0 q 0.05,-0.59 -0.1,-0.74 v 0 q 0.05,-0.78 -0.29,-1.02 v 0 q 0.05,-0.44 0.34,-0.83 0.29,-0.39 0.34,-0.83 v 0 q 0.39,-0.39 0.49,-0.59 0.1,-0.19 0.1,-0.44 v 0 q 0.29,-0.34 0.56,-0.85 0.27,-0.51 0.51,-1.1 0.24,-0.59 0.44,-1.15 0.2,-0.56 0.34,-1 v 0 q 0.39,-0.54 0.59,-1.12 0.19,-0.59 0.44,-1.17 v 0 q 0.39,-0.69 0.51,-1.01 0.12,-0.31 0.37,-0.56 v 0 q 0.04,-0.19 0.26,-0.75 0.22,-0.56 0.47,-1.2 0.24,-0.63 0.51,-1.15 0.27,-0.51 0.37,-0.66 v 0 q 0.05,-0.24 0.19,-0.48 0.15,-0.25 0.15,-0.49 v 0 q 0.49,-0.64 0.78,-1.57 0.29,-0.92 0.64,-1.61 v 0 q 0.34,-0.73 0.73,-1.44 0.39,-0.71 0.78,-1.44 v 0 q 1.51,-2.93 3.03,-5.91 v 0 q -0.1,-0.24 -0.42,-0.24 -0.32,0 -0.51,-0.15 v 0 q -0.39,0.1 -0.73,0.05 -0.35,-0.05 -0.74,-0.05 v 0 q -0.92,-0.19 -1.53,-0.17 -0.61,0.03 -1.2,0.03 v 0 q -0.29,0 -0.61,-0.05 -0.32,-0.05 -0.61,-0.05 v 0 q -0.73,0 -1.49,0.1 -0.76,0.09 -1.44,0.24 v 0 q -0.44,-0.1 -0.9,-0.1 -0.47,0 -0.86,-0.09 v 0 q -0.19,-0.74 -0.1,-0.83 v 0 q -0.09,-0.15 -0.22,-0.27 -0.12,-0.12 -0.22,-0.27 v 0 q 0.05,-0.44 -0.07,-0.56 -0.12,-0.12 -0.22,-0.37 v 0 q 0,-0.34 -0.02,-0.66 -0.03,-0.32 0.07,-0.66 v 0 q -0.1,-0.19 -0.24,-0.31 -0.15,-0.13 -0.25,-0.27 v 0 q 0.05,-0.25 0.03,-0.42 -0.03,-0.17 0.02,-0.36 v 0 q 0.29,-0.25 0.64,-0.37 0.34,-0.12 0.53,-0.42 v 0 q 0.64,-0.19 1.3,-0.24 0.66,-0.05 1.29,-0.05 v 0 q 0.68,0 1.29,0.03 0.61,0.02 1.2,0.07 v 0 q 0.44,0 0.81,0.12 0.36,0.12 0.75,0.17 v 0 q 0.25,0.05 0.49,0.03 0.25,-0.03 0.49,-0.03 v 0 q 0.83,0 1.68,0.03 0.86,0.02 1.69,0.02 v 0 q 0.68,0 1.27,0 0.58,0 1.17,-0.1 v 0 q 0.2,-0.19 0.29,-0.39 0.1,-0.19 0.2,-0.39 v 0 q 0.44,0 0.58,0.03 0.15,0.02 0.25,0.02 v 0 l 0.58,0.24 q 0.2,0 0.44,-0.07 0.25,-0.07 0.3,-0.32 z"
                                 opacity="1"
                                 fill="#883d1a"
                                 class="undefined-text-0"
                                 data-fill-palette-color="quaternary"
                                 id="text-0" />
                            </svg>
                          </g>
                        </svg>
                      </g>
                    </svg>
                  </g>
                </svg>
              </g>
              <g
                 id="g23" />
            </svg>
          </g>
          <defs
             id="defs29" />
        </svg>
        <rect
           width="395.51999"
           height="96.171761"
           fill="none"
           stroke="none"
           visibility="hidden"
           id="rect33"
           x="0"
           y="0" />
      </g>
    </svg>
  </g>
</svg>
