<?xml version="1.0" encoding="UTF-8" standalone="no"?>
<svg
   version="1.1"
   width="1000"
   height="242"
   viewBox="0 0 1000 242"
   id="svg38"
   sodipodi:docname="logo-no-background_web.svg"
   inkscape:version="1.2.2 (732a01da63, 2022-12-09)"
   xmlns:inkscape="http://www.inkscape.org/namespaces/inkscape"
   xmlns:sodipodi="http://sodipodi.sourceforge.net/DTD/sodipodi-0.dtd"
   xmlns="http://www.w3.org/2000/svg"
   xmlns:svg="http://www.w3.org/2000/svg">
  <defs
     id="defs42" />
  <sodipodi:namedview
     id="namedview40"
     pagecolor="#505050"
     bordercolor="#ffffff"
     borderopacity="1"
     inkscape:showpageshadow="0"
     inkscape:pageopacity="0"
     inkscape:pagecheckerboard="1"
     inkscape:deskcolor="#505050"
     showgrid="false"
     inkscape:zoom="0.605"
     inkscape:cx="423.1405"
     inkscape:cy="180.16529"
     inkscape:window-width="1366"
     inkscape:window-height="715"
     inkscape:window-x="-8"
     inkscape:window-y="22"
     inkscape:window-maximized="1"
     inkscape:current-layer="svg38" />
  <g
     transform="matrix(1,0,0,1,-0.6056348047761162,0.21723925613861184)"
     id="g36">
    <svg
       viewBox="0 0 396 96"
       data-background-color="#883d1a"
       preserveAspectRatio="xMidYMid meet"
       height="242"
       width="1000"
       version="1.1"
       id="svg34">
      <g
         id="tight-bounds"
         transform="matrix(1,0,0,1,0.24008861730862918,-0.08603838563547583)">
        <svg
           viewBox="0 0 395.52 96.17175962640414"
           height="96.17175962640414"
           width="395.52"
           version="1.1"
           id="svg29">
          <g
             id="g25">
            <svg
               viewBox="0 0 395.52 96.17175962640414"
               height="96.17175962640414"
               width="395.52"
               version="1.1"
               id="svg23">
              <g
                 id="g19">
                <svg
                   viewBox="0 0 395.52 96.17175962640414"
                   height="96.17175962640414"
                   width="395.52"
                   version="1.1"
                   id="svg17">
                  <g
                     id="g15">
                    <svg
                       viewBox="0 0 395.52 96.17175962640414"
                       height="96.17175962640414"
                       width="395.52"
                       version="1.1"
                       id="svg13">
                      <g
                         id="g11">
                        <svg
                           viewBox="0 0 395.52 96.17175962640414"
                           height="96.17175962640414"
                           width="395.52"
                           version="1.1"
                           id="svg9">
                          <path
                             d="M394.594 20.627C392.735 10.644 387.435 7.869 387.435 7.869 371.165-2.413 350.86-0.197 332.619 1.281 300.414 1.341 268.339 3.537 236.208 4.715 168.767 4.894 100.749 1.94 33.643 9.227 27.339 11.463-6.54 9.666 1.121 21.905 3.129 26.996 10.456 32.646 10.232 37.318 11.236 38.136 12.631 36.26 13.226 37.438 15.309 40.612 18.711 39.115 21.501 40.991 17.614 46.003 20.403 50.175 23.062 54.548 18.377 55.686 12.371 55.147 9.675 58.92 9.396 61.655 7.89 61.136 6.235 61.017 5.026 60.937 2.59 61.236 2.999 62.095 4.394 65.03-1.594 66.727 2.162 69.602-0.422 72.716 3.948 75.411 3.353 78.786 3.278 79.464 3.687 80.043 4.338 80.203 7.22 81.062 3.018 82.739 3.464 84.556 33.029 96.974 65.104 88.389 95.394 94.099 103.259 90.106 97.346 95.516 100.489 94.678 102.943 93.7 104.728 97.753 107.499 95.457 107.927 94.798 107.276 93.24 108.8 93.54 109.6 93.7 110.307 93.66 110.418 92.741 110.586 91.364 109.117 92.222 108.726 91.503 112.947 87.87 111.906 96.515 115.866 96.155 115.68 95.097 114.528 93.58 116.889 93.779 119.232 92.262 119.306 91.004 121.389 94.418 121.463 95.157 121.835 95.676 122.43 96.036 128.938 92.322 135.409 97.353 142.233 95.676 146.417 93.839 150.433 96.674 154.672 95.976 156.16 95.417 157.666 94.418 159.098 96.095 176.632 96.455 195.319 94.957 211.943 96.155 256.364 93.919 303.835 97.074 350.674 94.119 361.719 92.981 373.192 91.364 383.958 90.066 383.958 90.066 392.679 86.512 392.679 70.54S394.538 56.564 394.817 43.847C395.096 31.129 396.398 30.61 394.538 20.627Z"
                             opacity="1"
                             fill="#ffffff"
                             data-fill-palette-color="tertiary"
                             id="path2" />
                          <g
                             transform="matrix(1,0,0,1,55.76832,26.230666666666668)"
                             id="g7">
                            <svg
                               width="283.98335999999995"
                               viewBox="2.7300000190734863 -37.70000076293945 257.8899841308594 39.70000076293945"
                               height="43.710426293070796"
                               data-palette-color="#883d1a"
                               version="1.1"
                               id="svg5">
                              <path
                                 d="M19.87-6.84L19.87-6.84Q20.26-6.2 20.46-5.62 20.65-5.03 20.65-4.79L20.65-4.79Q20.65-4.44 20.53-4.22 20.41-4 20.21-3.76L20.21-3.76Q18.26-2.93 16.33-2.22 14.4-1.51 12.4-0.83L12.4-0.83Q11.91-0.68 11.45-0.51 10.99-0.34 10.45-0.24L10.45-0.24Q10.35-0.15 10.11-0.05 9.86 0.05 9.55 0.15 9.23 0.24 8.94 0.32 8.64 0.39 8.54 0.39L8.54 0.39Q8.45 0.15 8.35 0.1 8.25 0.05 8.15 0L8.15 0Q7.91 0 7.84 0.17 7.76 0.34 7.52 0.44L7.52 0.44Q7.28 0.44 7.08 0.46 6.88 0.49 6.74 0.39L6.74 0.39Q6.35 0.49 6.03 0.73 5.71 0.98 5.32 1.07L5.32 1.07Q4.59 0.88 4.42 0.9 4.25 0.93 4.05 0.98L4.05 0.98Q3.71 0.68 3.74 0.15 3.76-0.39 3.47-0.73L3.47-0.73Q3.47-1.37 3.37-1.44 3.27-1.51 3.27-1.61L3.27-1.61Q3.27-1.95 3.32-2.25 3.37-2.54 3.27-2.88L3.27-2.88Q3.47-3.71 3.42-4.49 3.37-5.27 3.47-6.05L3.47-6.05Q3.47-6.3 3.49-6.52 3.52-6.74 3.52-6.98L3.52-6.98Q3.52-7.71 3.61-7.89 3.71-8.06 3.71-8.3L3.71-8.3Q3.71-8.64 3.69-8.96 3.66-9.28 3.66-9.67L3.66-9.67Q3.66-10.35 3.69-11.01 3.71-11.67 3.71-12.4L3.71-12.4Q3.71-14.26 3.47-16.11 3.22-17.97 3.22-19.82L3.22-19.82Q3.22-22.07 2.98-24.27 2.73-26.46 2.73-28.71L2.73-28.71Q2.73-29.1 2.73-29.81 2.73-30.52 2.73-31.27 2.73-32.03 2.76-32.71 2.78-33.4 2.83-33.69L2.83-33.69Q2.83-33.74 3.13-33.84 3.42-33.94 3.52-33.94L3.52-33.94Q3.76-33.94 3.91-33.81 4.05-33.69 4.25-33.59L4.25-33.59Q5.13-33.69 5.3-33.76 5.47-33.84 5.57-33.84L5.57-33.84Q5.86-33.84 6.03-33.69 6.2-33.54 6.3-33.54L6.3-33.54Q7.13-33.74 7.2-33.59 7.28-33.45 7.52-33.45L7.52-33.45Q8.15-33.64 8.3-33.59 8.45-33.54 8.59-33.54L8.59-33.54Q8.84-33.54 9.13-33.72 9.42-33.89 9.67-33.98L9.67-33.98Q10.5-34.23 11.04-34.47L11.04-34.47Q11.77-34.91 12.13-35.06 12.5-35.21 12.89-35.4L12.89-35.4Q13.72-35.74 14.48-36.11 15.23-36.47 16.06-36.87L16.06-36.87Q16.21-36.87 16.38-36.89 16.55-36.91 16.65-37.01L16.65-37.01Q16.8-36.96 16.97-36.96 17.14-36.96 17.29-36.96L17.29-36.96Q17.77-36.77 17.92-36.72L17.92-36.72Q18.12-36.43 18.29-36.16 18.46-35.89 18.7-35.64L18.7-35.64Q18.95-35.21 19.09-35.21L19.09-35.21Q19.09-35.06 18.95-34.89 18.8-34.72 18.8-34.57L18.8-34.57Q19.19-33.89 19.43-33.3 19.68-32.71 19.68-32.47L19.68-32.47Q19.68-32.13 19.58-31.91 19.48-31.69 19.34-31.45L19.34-31.45Q17.48-30.57 15.6-29.71 13.72-28.86 11.77-28.03L11.77-28.03Q11.28-27.83 10.84-27.61 10.4-27.39 9.86-27.29L9.86-27.29Q9.77-27.2 9.42-27.12 9.08-27.05 8.89-27.05L8.89-27.05Q8.98-26.22 9.01-25.42 9.03-24.61 9.08-23.78L9.08-23.78Q9.13-23.1 9.25-22.34 9.38-21.58 9.47-20.85L9.47-20.85Q11.08-21.53 12.67-22.22 14.26-22.9 15.87-23.58L15.87-23.58Q16.16-23.54 16.48-23.49 16.8-23.44 17.09-23.34L17.09-23.34Q17.19-23.24 17.29-23.1 17.38-22.95 17.53-22.85L17.53-22.85Q17.48-22.61 17.85-22.12 18.21-21.63 18.21-21.39L18.21-21.39Q18.21-21 18.31-20.92 18.41-20.85 18.51-20.51L18.51-20.51Q18.55-20.02 18.51-19.97L18.51-19.97Q18.75-19.73 18.9-19.48 19.04-19.24 19.04-18.9L19.04-18.9Q18.36-18.07 17.68-17.8 16.99-17.53 16.31-17.24L16.31-17.24Q16.06-17.14 15.8-16.97 15.53-16.8 15.28-16.7L15.28-16.7Q14.89-16.55 14.53-16.43 14.16-16.31 13.77-16.11L13.77-16.11Q13.13-15.77 12.48-15.36 11.82-14.94 11.13-14.79L11.13-14.79Q10.6-14.65 10.42-14.48 10.25-14.31 9.86-14.01L9.86-14.01 9.86-12.7 9.86-10.25Q9.86-9.77 9.86-9.25 9.86-8.74 9.81-8.2L9.81-8.2Q9.72-7.71 9.72-7.37L9.72-7.37 9.72-6.59Q9.96-6.69 10.21-6.76 10.45-6.84 10.69-6.93L10.69-6.93Q10.89-6.98 11.06-6.98 11.23-6.98 11.43-7.08L11.43-7.08Q11.67-7.13 11.82-7.18 11.96-7.23 12.16-7.32L12.16-7.32Q12.89-7.71 13.28-7.84 13.67-7.96 14.06-8.11L14.06-8.11Q14.89-8.4 15.67-8.72 16.46-9.03 17.24-9.33L17.24-9.33Q17.72-9.23 17.92-9.47L17.92-9.47Q18.16-9.42 18.33-9.38 18.51-9.33 18.75-9.33L18.75-9.33Q19.34-8.79 19.48-8.5 19.63-8.2 19.87-7.96L19.87-7.96Q20.12-7.52 20.21-7.52L20.21-7.52Q20.21-7.42 20.07-7.2 19.92-6.98 19.87-6.84ZM42.33-37.55L42.33-37.55Q42.72-37.55 42.89-37.38 43.06-37.21 43.16-36.96L43.16-36.96Q43.65-37.01 44.16-36.79 44.68-36.57 44.77-36.38L44.77-36.38Q45.16-36.33 45.26-36.18 45.36-36.04 45.55-35.99L45.55-35.99 46.09-36.04Q46.29-35.84 46.85-35.64 47.41-35.45 47.51-35.21L47.51-35.21Q47.41-34.96 47.43-34.69 47.46-34.42 47.46-34.08L47.46-34.08Q47.31-33.35 46.99-32.76 46.68-32.18 46.43-31.64L46.43-31.64Q46.29-31.4 46.21-31.1 46.14-30.81 46.04-30.57L46.04-30.57Q45.94-30.37 45.87-30.2 45.8-30.03 45.7-29.83L45.7-29.83Q45.7-29.59 45.6-29.32 45.51-29.05 45.41-28.81L45.41-28.81Q45.41-28.52 45.36-28.39 45.31-28.27 45.31-28.17L45.31-28.17Q44.38-25.93 43.85-23.97 43.31-22.02 42.77-20.07L42.77-20.07Q42.53-19.48 42.28-18.6 42.04-17.72 41.67-16.53 41.31-15.33 40.89-13.99 40.48-12.65 40.11-11.5 39.74-10.35 39.48-9.55 39.21-8.74 39.16-8.64L39.16-8.64Q39.01-7.81 38.72-6.96 38.43-6.1 38.23-5.18L38.23-5.18Q37.99-4.88 37.94-4.52 37.89-4.15 37.69-3.81L37.69-3.81Q37.3-3.86 37.06-3.61L37.06-3.61Q37.01-3.22 37.13-2.88 37.25-2.54 37.25-2.15L37.25-2.15Q37.06-1.61 36.77-1.46 36.47-1.32 36.37-0.98L36.37-0.98Q36.03-1.07 35.86-0.88 35.69-0.68 35.5-0.68L35.5-0.68Q34.91-0.83 34.81-0.49L34.81-0.49Q34.52-0.59 34.42-0.42 34.32-0.24 34.23-0.2L34.23-0.2Q33.84-0.2 33.62-0.02 33.4 0.15 33.1 0.2L33.1 0.2Q32.91 0.1 32.71-0.02 32.52-0.15 32.37-0.29L32.37-0.29Q32.08-1.12 31.83-1.93 31.59-2.73 31.35-3.56L31.35-3.56Q31.25-3.96 31.1-4.3 30.95-4.64 30.86-5.03L30.86-5.03Q30.81-5.27 30.81-5.44 30.81-5.62 30.76-5.81L30.76-5.81Q30.66-6.05 30.56-6.3 30.47-6.54 30.37-6.79L30.37-6.79Q29.98-7.86 29.78-8.98L29.78-8.98Q29.54-9.81 29.32-10.62 29.1-11.43 28.9-12.26L28.9-12.26Q28.76-12.94 28.56-13.7 28.37-14.45 28.07-15.04L28.07-15.04Q27.98-15.82 27.66-16.53 27.34-17.24 27.34-17.97L27.34-17.97Q27.1-18.75 26.93-19.53 26.76-20.31 26.51-21.09L26.51-21.09Q26.41-21.48 26.27-21.83 26.12-22.17 26.02-22.51L26.02-22.51Q25.88-22.95 25.78-23.44 25.68-23.93 25.58-24.41L25.58-24.41Q25.44-24.85 25.29-25.27 25.14-25.68 25-26.12L25-26.12Q24.75-26.95 24.53-27.76 24.31-28.56 24.07-29.39L24.07-29.39Q23.83-30.32 23.61-31.23 23.39-32.13 22.85-32.96L22.85-32.96Q22.7-33.2 22.63-33.52 22.56-33.84 22.41-34.13L22.41-34.13Q22.51-34.52 22.46-35.03 22.41-35.55 22.6-35.84L22.6-35.84Q23.09-35.84 23.78-35.86 24.46-35.89 24.8-35.79L24.8-35.79Q25-35.84 25.12-35.94 25.24-36.04 25.44-36.08L25.44-36.08Q25.73-35.94 26.02-35.94L26.02-35.94Q26.46-35.94 26.71-36.13L26.71-36.13Q27.24-35.89 27.29-36.04 27.34-36.18 27.54-36.18L27.54-36.18Q27.83-36.08 27.98-35.77 28.12-35.45 28.27-35.21L28.27-35.21Q28.81-34.23 29.07-33.28 29.34-32.32 29.64-31.25L29.64-31.25Q29.98-30.27 30.27-29.32 30.56-28.37 30.81-27.39L30.81-27.39Q30.95-26.9 31.05-26.42 31.15-25.93 31.25-25.44L31.25-25.44Q31.39-24.9 31.59-24.44 31.78-23.97 31.98-23.44L31.98-23.44Q32.08-22.9 32.18-22.39 32.27-21.88 32.42-21.34L32.42-21.34Q32.52-20.95 32.66-20.61 32.81-20.26 32.91-19.87L32.91-19.87Q33.01-19.48 33.1-19.07 33.2-18.65 33.3-18.26L33.3-18.26Q33.54-17.29 33.84-16.33 34.13-15.38 34.37-14.4L34.37-14.4Q34.62-14.55 34.67-14.94 34.71-15.33 34.86-15.58L34.86-15.58Q34.96-16.16 35.18-16.85 35.4-17.53 35.59-18.12L35.59-18.12Q35.64-18.36 35.72-18.55 35.79-18.75 35.89-18.99L35.89-18.99Q36.03-19.29 36.08-19.6 36.13-19.92 36.23-20.26L36.23-20.26Q36.42-20.95 36.64-21.63 36.86-22.31 37.06-23L37.06-23Q37.25-23.63 37.4-24.32 37.55-25 37.79-25.59L37.79-25.59Q38.03-26.12 38.21-26.61 38.38-27.1 38.52-27.64L38.52-27.64Q38.67-28.17 38.77-28.71 38.86-29.25 39.11-29.69L39.11-29.69Q39.21-29.93 39.33-30.25 39.45-30.57 39.55-30.86L39.55-30.86Q39.79-31.64 39.99-32.42 40.18-33.2 40.52-33.98L40.52-33.98Q40.77-34.67 41.11-35.3 41.45-35.94 41.7-36.62L41.7-36.62Q41.89-37.11 42.04-37.26 42.19-37.4 42.33-37.55ZM67.38-6.84L67.38-6.84Q67.77-6.2 67.96-5.62 68.16-5.03 68.16-4.79L68.16-4.79Q68.16-4.44 68.04-4.22 67.91-4 67.72-3.76L67.72-3.76Q65.77-2.93 63.84-2.22 61.91-1.51 59.91-0.83L59.91-0.83Q59.42-0.68 58.95-0.51 58.49-0.34 57.95-0.24L57.95-0.24Q57.86-0.15 57.61-0.05 57.37 0.05 57.05 0.15 56.73 0.24 56.44 0.32 56.15 0.39 56.05 0.39L56.05 0.39Q55.95 0.15 55.85 0.1 55.76 0.05 55.66 0L55.66 0Q55.41 0 55.34 0.17 55.27 0.34 55.02 0.44L55.02 0.44Q54.78 0.44 54.58 0.46 54.39 0.49 54.24 0.39L54.24 0.39Q53.85 0.49 53.54 0.73 53.22 0.98 52.83 1.07L52.83 1.07Q52.09 0.88 51.92 0.9 51.75 0.93 51.56 0.98L51.56 0.98Q51.22 0.68 51.24 0.15 51.26-0.39 50.97-0.73L50.97-0.73Q50.97-1.37 50.87-1.44 50.78-1.51 50.78-1.61L50.78-1.61Q50.78-1.95 50.83-2.25 50.87-2.54 50.78-2.88L50.78-2.88Q50.97-3.71 50.92-4.49 50.87-5.27 50.97-6.05L50.97-6.05Q50.97-6.3 51-6.52 51.02-6.74 51.02-6.98L51.02-6.98Q51.02-7.71 51.12-7.89 51.22-8.06 51.22-8.3L51.22-8.3Q51.22-8.64 51.19-8.96 51.17-9.28 51.17-9.67L51.17-9.67Q51.17-10.35 51.19-11.01 51.22-11.67 51.22-12.4L51.22-12.4Q51.22-14.26 50.97-16.11 50.73-17.97 50.73-19.82L50.73-19.82Q50.73-22.07 50.48-24.27 50.24-26.46 50.24-28.71L50.24-28.71Q50.24-29.1 50.24-29.81 50.24-30.52 50.24-31.27 50.24-32.03 50.26-32.71 50.29-33.4 50.34-33.69L50.34-33.69Q50.34-33.74 50.63-33.84 50.92-33.94 51.02-33.94L51.02-33.94Q51.26-33.94 51.41-33.81 51.56-33.69 51.75-33.59L51.75-33.59Q52.63-33.69 52.8-33.76 52.97-33.84 53.07-33.84L53.07-33.84Q53.36-33.84 53.54-33.69 53.71-33.54 53.8-33.54L53.8-33.54Q54.63-33.74 54.71-33.59 54.78-33.45 55.02-33.45L55.02-33.45Q55.66-33.64 55.81-33.59 55.95-33.54 56.1-33.54L56.1-33.54Q56.34-33.54 56.64-33.72 56.93-33.89 57.17-33.98L57.17-33.98Q58-34.23 58.54-34.47L58.54-34.47Q59.27-34.91 59.64-35.06 60-35.21 60.4-35.4L60.4-35.4Q61.23-35.74 61.98-36.11 62.74-36.47 63.57-36.87L63.57-36.87Q63.72-36.87 63.89-36.89 64.06-36.91 64.16-37.01L64.16-37.01Q64.3-36.96 64.47-36.96 64.64-36.96 64.79-36.96L64.79-36.96Q65.28-36.77 65.42-36.72L65.42-36.72Q65.62-36.43 65.79-36.16 65.96-35.89 66.21-35.64L66.21-35.64Q66.45-35.21 66.6-35.21L66.6-35.21Q66.6-35.06 66.45-34.89 66.3-34.72 66.3-34.57L66.3-34.57Q66.69-33.89 66.94-33.3 67.18-32.71 67.18-32.47L67.18-32.47Q67.18-32.13 67.08-31.91 66.99-31.69 66.84-31.45L66.84-31.45Q64.99-30.57 63.11-29.71 61.23-28.86 59.27-28.03L59.27-28.03Q58.78-27.83 58.34-27.61 57.91-27.39 57.37-27.29L57.37-27.29Q57.27-27.2 56.93-27.12 56.59-27.05 56.39-27.05L56.39-27.05Q56.49-26.22 56.51-25.42 56.54-24.61 56.59-23.78L56.59-23.78Q56.64-23.1 56.76-22.34 56.88-21.58 56.98-20.85L56.98-20.85Q58.59-21.53 60.18-22.22 61.76-22.9 63.37-23.58L63.37-23.58Q63.67-23.54 63.98-23.49 64.3-23.44 64.59-23.34L64.59-23.34Q64.69-23.24 64.79-23.1 64.89-22.95 65.03-22.85L65.03-22.85Q64.99-22.61 65.35-22.12 65.72-21.63 65.72-21.39L65.72-21.39Q65.72-21 65.82-20.92 65.91-20.85 66.01-20.51L66.01-20.51Q66.06-20.02 66.01-19.97L66.01-19.97Q66.25-19.73 66.4-19.48 66.55-19.24 66.55-18.9L66.55-18.9Q65.86-18.07 65.18-17.8 64.5-17.53 63.81-17.24L63.81-17.24Q63.57-17.14 63.3-16.97 63.03-16.8 62.79-16.7L62.79-16.7Q62.4-16.55 62.03-16.43 61.66-16.31 61.27-16.11L61.27-16.11Q60.64-15.77 59.98-15.36 59.32-14.94 58.64-14.79L58.64-14.79Q58.1-14.65 57.93-14.48 57.76-14.31 57.37-14.01L57.37-14.01 57.37-12.7 57.37-10.25Q57.37-9.77 57.37-9.25 57.37-8.74 57.32-8.2L57.32-8.2Q57.22-7.71 57.22-7.37L57.22-7.37 57.22-6.59Q57.47-6.69 57.71-6.76 57.95-6.84 58.2-6.93L58.2-6.93Q58.39-6.98 58.56-6.98 58.74-6.98 58.93-7.08L58.93-7.08Q59.17-7.13 59.32-7.18 59.47-7.23 59.66-7.32L59.66-7.32Q60.4-7.71 60.79-7.84 61.18-7.96 61.57-8.11L61.57-8.11Q62.4-8.4 63.18-8.72 63.96-9.03 64.74-9.33L64.74-9.33Q65.23-9.23 65.42-9.47L65.42-9.47Q65.67-9.42 65.84-9.38 66.01-9.33 66.25-9.33L66.25-9.33Q66.84-8.79 66.99-8.5 67.13-8.2 67.38-7.96L67.38-7.96Q67.62-7.52 67.72-7.52L67.72-7.52Q67.72-7.42 67.57-7.2 67.43-6.98 67.38-6.84ZM93.69-36.67L93.69-36.67Q94.23-36.67 94.47-36.52L94.47-36.52Q94.72-36.04 94.79-35.67 94.87-35.3 94.87-34.81L94.87-34.81Q94.91-34.08 94.89-33.76 94.87-33.45 94.82-33.11L94.82-33.11Q94.77-32.32 94.77-31.62 94.77-30.91 94.77-30.13L94.77-30.13Q94.77-28.42 94.82-26.66 94.87-24.9 94.87-23.19L94.87-23.19Q94.87-22.51 94.84-21.85 94.82-21.19 94.82-20.51L94.82-20.51Q94.82-20.36 94.84-20.19 94.87-20.02 94.87-19.87L94.87-19.87Q94.87-19.43 94.84-19.02 94.82-18.6 94.82-18.21L94.82-18.21Q94.82-18.02 94.82-17.87 94.82-17.72 94.87-17.48L94.87-17.48Q94.77-17.09 94.77-16.94L94.77-16.94Q94.77-16.16 94.82-15.36 94.87-14.55 94.87-13.77L94.87-13.77Q94.87-13.04 94.89-12.35 94.91-11.67 94.91-10.94L94.91-10.94Q94.91-10.55 94.89-10.11 94.87-9.67 94.87-9.23L94.87-9.23Q94.87-8.2 94.91-7.15 94.96-6.1 95.01-5.08L95.01-5.08Q95.01-4.39 95.01-3.74 95.01-3.08 95.11-2.39L95.11-2.39Q95.11-1.61 95.04-1.25 94.96-0.88 94.87-0.54L94.87-0.54Q94.47-0.44 94.35-0.46 94.23-0.49 94.08-0.49L94.08-0.49Q93.4-0.29 93.21-0.12 93.01 0.05 92.77 0.24L92.77 0.24Q92.57 0.24 92.3 0.27 92.03 0.29 91.89 0.44L91.89 0.44Q91.64 0.34 91.5 0.39 91.35 0.44 91.2 0.44L91.2 0.44Q90.52 0.49 90.28 0.61 90.03 0.73 89.59 0.73L89.59 0.73Q89.2 0.1 89.01-0.27 88.81-0.63 88.37-0.59L88.37-0.59Q87.74-1.56 87.47-2.64 87.2-3.71 86.56-4.59L86.56-4.59Q86.52-4.98 86.42-5.08 86.32-5.18 86.22-5.47L86.22-5.47Q86.03-5.86 85.88-6.3 85.73-6.74 85.49-7.13L85.49-7.13Q85.1-7.96 84.71-8.76 84.32-9.57 83.98-10.45L83.98-10.45Q83.83-10.84 83.73-11.25 83.64-11.67 83.49-12.06L83.49-12.06Q83.39-12.26 83.27-12.45 83.15-12.65 83.05-12.79L83.05-12.79Q82.76-13.33 82.49-13.87 82.22-14.4 81.88-14.94L81.88-14.94Q81.78-15.19 81.61-15.41 81.44-15.63 81.24-15.87L81.24-15.87Q81.1-16.21 80.97-16.55 80.85-16.89 80.71-17.24L80.71-17.24Q80.61-17.53 80.41-17.85 80.22-18.16 80.12-18.46L80.12-18.46Q80.02-18.7 79.97-18.95 79.92-19.19 79.68-19.38L79.68-19.38Q79.34-18.8 79.34-18.6L79.34-18.6Q79.29-18.02 79.26-17.65 79.24-17.29 79.24-16.99L79.24-16.99Q79.24-16.65 79.31-16.33 79.39-16.02 79.39-15.72L79.39-15.72Q79.48-14.55 79.53-13.35 79.58-12.16 79.58-10.99L79.58-10.99Q79.53-10.06 79.56-9.57 79.58-9.08 79.63-8.59L79.63-8.59Q79.68-8.11 79.66-7.59 79.63-7.08 79.68-6.59L79.68-6.59Q79.68-5.47 79.7-4.42 79.73-3.37 79.73-2.25L79.73-2.25 79.73-1.07Q79.73-0.54 79.58-0.1L79.58-0.1Q78.85-0.1 78.63-0.15 78.41-0.2 78.17-0.29L78.17-0.29Q77.87-0.24 77.7-0.07 77.53 0.1 77.29 0.24L77.29 0.24Q76.75 0.2 76.7 0.27 76.65 0.34 76.51 0.44L76.51 0.44Q76.36 0.49 76.24 0.44 76.12 0.39 75.97 0.39L75.97 0.39Q75.58 0.29 75.33 0.29L75.33 0.29Q75.04 0.39 74.77 0.49 74.5 0.59 74.21 0.63L74.21 0.63Q73.92 0.1 73.87-0.63 73.82-1.37 73.48-1.9L73.48-1.9Q73.58-2.1 73.6-2.15 73.63-2.2 73.63-2.44L73.63-2.44Q73.63-3.56 73.58-4.69 73.53-5.81 73.53-6.93L73.53-6.93Q73.53-7.86 73.41-8.74 73.28-9.62 73.28-10.55L73.28-10.55Q73.28-10.84 73.33-11.13 73.38-11.43 73.38-11.77L73.38-11.77Q73.38-11.91 73.36-12.06 73.33-12.21 73.33-12.3L73.33-12.3Q73.23-13.18 73.21-14.11 73.19-15.04 73.19-15.97L73.19-15.97Q73.14-16.5 73.11-17.09 73.09-17.68 73.09-18.31L73.09-18.31Q73.09-18.55 73.14-18.85 73.19-19.14 73.19-19.43L73.19-19.43 73.19-21.48Q73.09-22.07 73.11-22.27 73.14-22.46 73.14-22.66L73.14-22.66Q73.14-23.1 73.06-23.51 72.99-23.93 72.99-24.41L72.99-24.41Q72.99-24.76 73.06-25.07 73.14-25.39 73.14-25.73L73.14-25.73Q73.14-26.46 73.06-27.15 72.99-27.83 72.99-28.56L72.99-28.56 72.99-32.71Q72.99-33.06 72.94-33.4 72.89-33.74 72.89-34.13L72.89-34.13Q73.19-34.81 73.43-34.84 73.67-34.86 73.87-35.01L73.87-35.01Q74.41-34.91 74.8-35.11L74.8-35.11Q75.43-35.06 75.58-35.25L75.58-35.25Q75.68-35.16 75.85-35.18 76.02-35.21 76.16-35.16L76.16-35.16Q76.31-35.25 76.41-35.35 76.51-35.45 76.7-35.55L76.7-35.55Q77.24-35.84 77.34-35.91 77.43-35.99 77.58-36.08L77.58-36.08Q77.82-36.08 77.9-35.94 77.97-35.79 78.22-35.79L78.22-35.79Q78.31-35.6 78.46-35.4 78.61-35.21 78.8-35.11L78.8-35.11Q79.19-34.28 79.73-33.69L79.73-33.69Q80.17-32.42 80.73-31.25 81.29-30.08 81.93-28.91L81.93-28.91Q81.93-28.76 81.97-28.54 82.02-28.32 82.07-28.22L82.07-28.22Q82.32-27.69 82.78-26.83 83.24-25.98 83.59-25.44L83.59-25.44Q83.68-25.24 83.83-25.1 83.98-24.95 84.07-24.76L84.07-24.76Q84.22-24.51 84.32-24.22 84.42-23.93 84.56-23.68L84.56-23.68Q84.81-23.1 85.12-22.53 85.44-21.97 85.78-21.39L85.78-21.39Q85.88-21.09 86-20.8 86.13-20.51 86.27-20.21L86.27-20.21Q86.66-19.34 86.98-18.87 87.3-18.41 87.44-17.87L87.44-17.87Q87.79-17.48 87.98-17.02 88.18-16.55 88.57-16.26L88.57-16.26Q88.62-16.5 88.66-17.7 88.71-18.9 88.71-20.31 88.71-21.73 88.71-23 88.71-24.27 88.71-24.71L88.71-24.71Q88.71-26.03 88.66-27.32 88.62-28.61 88.62-29.88L88.62-29.88Q88.62-30.91 88.64-31.96 88.66-33.01 88.71-34.03L88.71-34.03Q88.76-34.57 88.74-35.03 88.71-35.5 88.76-35.99L88.76-35.99Q88.81-36.23 88.96-36.47 89.1-36.72 89.2-36.96L89.2-36.96Q89.84-37.06 90.18-36.72L90.18-36.72Q90.47-36.87 90.89-36.87 91.3-36.87 91.59-36.91L91.59-36.91Q91.98-36.96 92.03-36.99 92.08-37.01 92.18-37.01L92.18-37.01Q92.38-36.91 92.55-36.87 92.72-36.82 92.96-36.72L92.96-36.72Q93.4-36.87 93.69-36.67ZM121.18-34.91L121.18-34.91Q121.08-34.72 121.11-34.52 121.13-34.33 121.13-34.08L121.13-34.08Q121.03-33.5 121.13-33.5 121.23-33.5 121.23-33.4L121.23-33.4 120.89-32.91Q120.89-32.62 120.77-32.37 120.64-32.13 120.69-31.79L120.69-31.79Q120.55-31.54 120.42-31.3 120.3-31.05 120.06-30.81L120.06-30.81 119.42-30.81Q118.89-30.81 118.28-30.74 117.67-30.66 117.08-30.66L117.08-30.66Q116.98-30.66 116.84-30.69 116.69-30.71 116.54-30.71L116.54-30.71Q116.45-30.71 116.3-30.69 116.15-30.66 115.96-30.66L115.96-30.66Q115.22-30.66 114.52-30.74 113.81-30.81 113.03-30.81L113.03-30.81Q112.83-30.81 112.64-30.81 112.44-30.81 112.2-30.76L112.2-30.76Q112.15-29.93 112.12-29.08 112.1-28.22 112.1-27.34L112.1-27.34Q112.1-27.1 112.05-26.83 112-26.56 112-26.32L112-26.32Q111.95-25.68 111.93-25.1 111.9-24.51 111.9-23.88L111.9-23.88Q111.9-22.51 111.93-21.14 111.95-19.78 112-18.36L112-18.36Q112.05-17.63 112.1-16.94 112.15-16.26 112.15-15.53L112.15-15.53Q112.15-13.87 112.1-12.23 112.05-10.6 112.05-8.94L112.05-8.94Q112.05-8.4 112-7.93 111.95-7.47 111.95-6.93L111.95-6.93Q111.95-5.81 112-4.69 112.05-3.56 112.05-2.44L112.05-2.44Q112.05-1.9 112.03-1.37 112-0.83 112-0.29L112-0.29Q111.76 0.1 111.66 0.39 111.56 0.68 111.07 0.68L111.07 0.68Q110.73 0.59 110.76 0.46 110.78 0.34 110.68 0.24L110.68 0.24Q110.24 0.2 110.02 0.32 109.8 0.44 109.51 0.54L109.51 0.54Q109.37 0.49 109.19 0.49 109.02 0.49 108.88 0.49L108.88 0.49Q108.78 0.49 108.68 0.56 108.58 0.63 108.24 0.63L108.24 0.63Q107.95 0.68 107.9 0.54 107.85 0.39 107.61 0.39L107.61 0.39Q107.36 0.54 107.05 0.61 106.73 0.68 106.44 0.68L106.44 0.68Q106.14 0.49 106.17 0.32 106.19 0.15 106.09-0.05L106.09-0.05Q106.04-0.15 105.92-0.32 105.8-0.49 105.7-0.59L105.7-0.59Q105.8-1.27 105.85-1.81 105.9-2.34 105.9-2.98L105.9-2.98Q105.9-4.25 105.8-5.47 105.7-6.69 105.7-7.96L105.7-7.96Q105.7-8.35 105.8-8.79 105.9-9.23 105.9-9.72L105.9-9.72Q105.8-10.11 105.85-10.18 105.9-10.25 105.9-10.35L105.9-10.35Q105.9-10.64 105.87-10.94 105.85-11.23 105.85-11.52L105.85-11.52Q105.85-12.11 105.87-12.7 105.9-13.28 105.9-13.87L105.9-13.87Q105.9-14.11 105.87-14.38 105.85-14.65 105.85-14.89L105.85-14.89Q105.8-15.33 105.82-15.82 105.85-16.31 105.85-16.8L105.85-16.8Q105.85-19.14 105.78-21.44 105.7-23.73 105.7-26.07L105.7-26.07Q105.7-27.2 105.82-28.37 105.95-29.54 105.95-30.71L105.95-30.71Q105.95-30.86 105.85-31.1 105.75-31.35 105.65-31.45L105.65-31.45Q105.41-31.45 105.19-31.47 104.97-31.49 104.73-31.49L104.73-31.49Q104.19-31.49 103.7-31.35L103.7-31.35Q102.77-31.3 101.92-31.23 101.06-31.15 100.19-31.1L100.19-31.1Q99.6-31.15 99.48-31.13 99.36-31.1 99.21-31.1L99.21-31.1Q98.82-31.1 98.62-31.3L98.62-31.3 98.62-31.93Q98.33-32.52 98.38-32.57 98.43-32.62 98.43-32.71L98.43-32.71Q98.43-32.86 98.16-33.03 97.89-33.2 97.89-33.59L97.89-33.59Q97.84-33.98 97.7-34.18 97.55-34.38 97.55-34.57L97.55-34.57Q97.55-34.91 97.7-35.35L97.7-35.35Q98.13-35.6 98.55-35.69 98.96-35.79 99.5-35.94L99.5-35.94Q99.79-36.04 100.04-36.13 100.28-36.23 100.58-36.28L100.58-36.28Q100.92-36.33 101.26-36.33 101.6-36.33 101.94-36.38L101.94-36.38Q102.68-36.52 103.48-36.62 104.29-36.72 105.02-36.72L105.02-36.72Q105.7-36.72 106.39-36.55 107.07-36.38 107.61-36.38L107.61-36.38Q108.39-36.38 109.1-36.28 109.8-36.18 110.59-36.18L110.59-36.18Q110.68-36.18 110.9-36.11 111.12-36.04 111.42-36.04L111.42-36.04 116.15-36.04Q116.54-35.94 116.71-35.99 116.88-36.04 117.03-36.04L117.03-36.04Q117.42-36.04 117.76-35.99 118.11-35.94 118.5-35.94L118.5-35.94Q118.84-35.94 119.03-35.99L119.03-35.99Q119.42-35.94 119.77-35.77 120.11-35.6 120.55-35.6L120.55-35.6Q120.74-35.45 120.84-35.23 120.94-35.01 121.18-34.91ZM138.61-5.62L138.61-5.62Q138.51-5.32 138.51-5.08L138.51-5.08Q138.51-4.79 138.59-4.49 138.66-4.2 138.66-3.91L138.66-3.91Q138.56-3.03 138.51-2.83L138.51-2.83Q138.22-2.59 137.32-2.27 136.41-1.95 135.17-1.64 133.92-1.32 132.48-1 131.04-0.68 129.72-0.39 128.41-0.1 127.31 0.12 126.21 0.34 125.67 0.44L125.67 0.44Q125.43 0.49 125.21 0.56 124.99 0.63 124.74 0.73L124.74 0.73Q124.5 0.78 124.26 0.76 124.01 0.73 123.77 0.83L123.77 0.83Q123.62 0.83 123.5 0.68 123.38 0.54 123.28 0.44L123.28 0.44Q123.28 0.15 123.18 0 123.08-0.15 122.96-0.24 122.84-0.34 122.74-0.46 122.64-0.59 122.64-0.88L122.64-0.88Q122.55-1.27 122.38-1.49 122.2-1.71 122.2-1.9L122.2-1.9Q122.01-2.54 122.01-3.03L122.01-3.03Q122.01-3.27 122.06-3.42 122.11-3.56 122.2-3.71L122.2-3.71Q122.5-3.81 122.64-3.96 122.79-4.1 123.03-4.2L123.03-4.2Q123.33-4.35 123.86-4.47 124.4-4.59 125.04-4.74 125.67-4.88 126.26-5.03 126.84-5.18 127.23-5.32L127.23-5.32Q127.38-5.37 127.53-5.37 127.67-5.37 127.77-5.47L127.77-5.47Q127.67-6.25 127.65-7.03 127.62-7.81 127.53-8.54L127.53-8.54Q127.53-8.89 127.48-9.23 127.43-9.57 127.43-9.86L127.43-9.86 127.48-10.89Q127.48-12.74 127.33-14.6 127.18-16.46 127.18-18.31L127.18-18.31 127.18-19.97Q127.18-20.36 127.16-20.7 127.14-21.04 127.14-21.44L127.14-21.44Q127.14-22.36 127.16-23.22 127.18-24.07 127.18-25L127.18-25 127.18-29.49Q126.11-29.74 125.18-29.47 124.26-29.2 123.28-29.1L123.28-29.1Q122.94-29.44 122.89-29.83L122.89-29.83Q122.5-30.37 122.35-30.52 122.2-30.66 122.01-31.35L122.01-31.35Q121.67-32.03 121.45-32.2 121.23-32.37 121.23-32.76L121.23-32.76Q121.23-33.01 121.35-33.11 121.47-33.2 121.57-33.45L121.57-33.45Q122.01-33.64 122.08-33.72 122.16-33.79 122.25-33.84L122.25-33.84Q122.74-34.18 123.38-34.33 124.01-34.47 124.6-34.67L124.6-34.67Q125.09-34.81 125.52-35.01 125.96-35.21 126.5-35.35L126.5-35.35Q127.14-35.55 127.77-35.74 128.41-35.94 128.99-36.08L128.99-36.08Q129.38-36.18 129.75-36.16 130.11-36.13 130.51-36.38L130.51-36.38Q131.14-36.28 131.85-36.4 132.56-36.52 133.39-36.72 134.22-36.91 135-37.06 135.78-37.21 136.17-37.3L136.17-37.3Q136.41-37.21 136.51-37.06 136.61-36.91 136.8-36.87L136.8-36.87Q136.85-36.72 136.9-36.5 136.95-36.28 137.1-36.18L137.1-36.18Q137.1-35.64 137.34-35.4L137.34-35.4Q137.29-34.91 137.51-34.3 137.73-33.69 137.73-33.15L137.73-33.15Q137.49-32.42 136.93-32.23 136.36-32.03 135.71-31.88 135.05-31.74 134.41-31.62 133.78-31.49 133.39-31.35L133.39-31.35Q133.39-30.66 133.41-29.93 133.43-29.2 133.43-28.47L133.43-28.47Q133.43-27.78 133.41-27.1 133.39-26.42 133.39-25.73L133.39-25.73Q133.39-24.71 133.36-23.63 133.34-22.56 133.34-21.48L133.34-21.48Q133.34-19.97 133.39-18.46 133.43-16.94 133.53-15.43L133.53-15.43Q133.58-15.19 133.58-14.7L133.58-14.7Q133.58-12.74 133.65-10.86 133.73-8.98 133.92-6.98L133.92-6.98Q134.56-6.93 134.9-7.18L134.9-7.18Q135.14-7.18 135.36-7.28 135.58-7.37 135.78-7.47L135.78-7.47Q136.07-7.52 136.58-7.64 137.1-7.76 137.24-7.76L137.24-7.76Q137.68-7.71 137.78-7.76L137.78-7.76Q137.93-7.47 138.22-7.32L138.22-7.32Q138.32-6.88 138.39-6.47 138.46-6.05 138.61-5.62ZM163.27-34.91L163.27-34.91Q163.17-34.72 163.19-34.52 163.22-34.33 163.22-34.08L163.22-34.08Q163.12-33.5 163.22-33.5 163.32-33.5 163.32-33.4L163.32-33.4 162.97-32.91Q162.97-32.62 162.85-32.37 162.73-32.13 162.78-31.79L162.78-31.79Q162.63-31.54 162.51-31.3 162.39-31.05 162.14-30.81L162.14-30.81 161.51-30.81Q160.97-30.81 160.36-30.74 159.75-30.66 159.16-30.66L159.16-30.66Q159.07-30.66 158.92-30.69 158.77-30.71 158.63-30.71L158.63-30.71Q158.53-30.71 158.38-30.69 158.24-30.66 158.04-30.66L158.04-30.66Q157.31-30.66 156.6-30.74 155.89-30.81 155.11-30.81L155.11-30.81Q154.92-30.81 154.72-30.81 154.53-30.81 154.28-30.76L154.28-30.76Q154.23-29.93 154.21-29.08 154.18-28.22 154.18-27.34L154.18-27.34Q154.18-27.1 154.14-26.83 154.09-26.56 154.09-26.32L154.09-26.32Q154.04-25.68 154.01-25.1 153.99-24.51 153.99-23.88L153.99-23.88Q153.99-22.51 154.01-21.14 154.04-19.78 154.09-18.36L154.09-18.36Q154.14-17.63 154.18-16.94 154.23-16.26 154.23-15.53L154.23-15.53Q154.23-13.87 154.18-12.23 154.14-10.6 154.14-8.94L154.14-8.94Q154.14-8.4 154.09-7.93 154.04-7.47 154.04-6.93L154.04-6.93Q154.04-5.81 154.09-4.69 154.14-3.56 154.14-2.44L154.14-2.44Q154.14-1.9 154.11-1.37 154.09-0.83 154.09-0.29L154.09-0.29Q153.84 0.1 153.74 0.39 153.65 0.68 153.16 0.68L153.16 0.68Q152.82 0.59 152.84 0.46 152.87 0.34 152.77 0.24L152.77 0.24Q152.33 0.2 152.11 0.32 151.89 0.44 151.6 0.54L151.6 0.54Q151.45 0.49 151.28 0.49 151.11 0.49 150.96 0.49L150.96 0.49Q150.86 0.49 150.77 0.56 150.67 0.63 150.33 0.63L150.33 0.63Q150.03 0.68 149.99 0.54 149.94 0.39 149.69 0.39L149.69 0.39Q149.45 0.54 149.13 0.61 148.81 0.68 148.52 0.68L148.52 0.68Q148.23 0.49 148.25 0.32 148.28 0.15 148.18-0.05L148.18-0.05Q148.13-0.15 148.01-0.32 147.89-0.49 147.79-0.59L147.79-0.59Q147.89-1.27 147.93-1.81 147.98-2.34 147.98-2.98L147.98-2.98Q147.98-4.25 147.89-5.47 147.79-6.69 147.79-7.96L147.79-7.96Q147.79-8.35 147.89-8.79 147.98-9.23 147.98-9.72L147.98-9.72Q147.89-10.11 147.93-10.18 147.98-10.25 147.98-10.35L147.98-10.35Q147.98-10.64 147.96-10.94 147.93-11.23 147.93-11.52L147.93-11.52Q147.93-12.11 147.96-12.7 147.98-13.28 147.98-13.87L147.98-13.87Q147.98-14.11 147.96-14.38 147.93-14.65 147.93-14.89L147.93-14.89Q147.89-15.33 147.91-15.82 147.93-16.31 147.93-16.8L147.93-16.8Q147.93-19.14 147.86-21.44 147.79-23.73 147.79-26.07L147.79-26.07Q147.79-27.2 147.91-28.37 148.03-29.54 148.03-30.71L148.03-30.71Q148.03-30.86 147.93-31.1 147.84-31.35 147.74-31.45L147.74-31.45Q147.49-31.45 147.28-31.47 147.06-31.49 146.81-31.49L146.81-31.49Q146.27-31.49 145.79-31.35L145.79-31.35Q144.86-31.3 144-31.23 143.15-31.15 142.27-31.1L142.27-31.1Q141.68-31.15 141.56-31.13 141.44-31.1 141.29-31.1L141.29-31.1Q140.9-31.1 140.71-31.3L140.71-31.3 140.71-31.93Q140.41-32.52 140.46-32.57 140.51-32.62 140.51-32.71L140.51-32.71Q140.51-32.86 140.24-33.03 139.98-33.2 139.98-33.59L139.98-33.59Q139.93-33.98 139.78-34.18 139.63-34.38 139.63-34.57L139.63-34.57Q139.63-34.91 139.78-35.35L139.78-35.35Q140.22-35.6 140.63-35.69 141.05-35.79 141.59-35.94L141.59-35.94Q141.88-36.04 142.12-36.13 142.37-36.23 142.66-36.28L142.66-36.28Q143-36.33 143.34-36.33 143.69-36.33 144.03-36.38L144.03-36.38Q144.76-36.52 145.57-36.62 146.37-36.72 147.1-36.72L147.1-36.72Q147.79-36.72 148.47-36.55 149.15-36.38 149.69-36.38L149.69-36.38Q150.47-36.38 151.18-36.28 151.89-36.18 152.67-36.18L152.67-36.18Q152.77-36.18 152.99-36.11 153.21-36.04 153.5-36.04L153.5-36.04 158.24-36.04Q158.63-35.94 158.8-35.99 158.97-36.04 159.12-36.04L159.12-36.04Q159.51-36.04 159.85-35.99 160.19-35.94 160.58-35.94L160.58-35.94Q160.92-35.94 161.12-35.99L161.12-35.99Q161.51-35.94 161.85-35.77 162.19-35.6 162.63-35.6L162.63-35.6Q162.83-35.45 162.92-35.23 163.02-35.01 163.27-34.91ZM185.92-34.57L185.92-34.57Q185.38-33.59 184.7-32.28 184.02-30.96 183.63-29.98L183.63-29.98Q183.48-29.64 183.36-29.32 183.23-29 183.09-28.66L183.09-28.66Q182.84-27.93 182.48-27.27 182.11-26.61 181.82-25.88L181.82-25.88Q181.38-24.9 180.92-23.9 180.45-22.9 180.01-21.83L180.01-21.83Q179.52-20.85 179.25-20.14 178.99-19.43 178.69-18.7 178.4-17.97 178.18-17.26 177.96-16.55 177.81-15.97L177.81-15.97Q177.38-15.19 177.08-14.79L177.08-14.79Q176.98-13.92 176.89-13.04 176.79-12.16 176.79-11.23L176.79-11.23Q176.79-10.79 176.86-10.38 176.94-9.96 176.98-9.52L176.98-9.52Q177.03-8.89 177.01-8.28 176.98-7.67 177.03-7.03L177.03-7.03Q177.08-5.81 177.16-4.61 177.23-3.42 177.28-2.15L177.28-2.15Q177.33-1.27 177.2-0.66 177.08-0.05 177.13 0.59L177.13 0.59Q176.98 0.68 176.81 0.73 176.64 0.78 176.5 0.88L176.5 0.88Q175.96 0.88 175.79 0.85 175.62 0.83 175.47 0.93L175.47 0.93Q175.03 0.63 174.98 0.66 174.93 0.68 174.88 0.68L174.88 0.68Q174.3 0.49 174.25 0.39 174.2 0.29 174.05 0.2L174.05 0.2Q173.52 0.2 173.18 0.34L173.18 0.34Q173.03 0.24 172.93 0.15 172.83 0.05 172.69-0.05L172.69-0.05Q172.25-0.1 171.96-0.17 171.66-0.24 171.47-0.34L171.47-0.34Q171.32-0.73 171.15-1.03 170.98-1.32 170.98-1.81L170.98-1.81Q170.98-2.2 171.08-2.54 171.17-2.88 171.22-3.27L171.22-3.27Q171.22-3.52 171.2-3.71 171.17-3.91 171.17-4.15L171.17-4.15Q171.17-4.39 171.27-4.79L171.27-4.79Q171.13-5.91 171.15-7.15 171.17-8.4 171.17-9.52L171.17-9.52Q171.17-10.64 170.98-11.62L170.98-11.62Q171.03-12.26 170.98-12.52 170.93-12.79 170.93-13.09L170.93-13.09Q170.93-13.33 170.98-13.6 171.03-13.87 171.03-14.11L171.03-14.11Q171.03-14.16 170.95-14.62 170.88-15.09 170.78-15.6 170.69-16.11 170.59-16.58 170.49-17.04 170.49-17.14L170.49-17.14Q170-18.02 169.76-18.8 169.51-19.58 169.22-20.12L169.22-20.12Q169.03-20.51 168.83-20.9 168.63-21.29 168.49-21.73L168.49-21.73Q168.39-21.97 168.32-22.27 168.24-22.56 168.15-22.8L168.15-22.8Q167.95-23.19 167.78-23.66 167.61-24.12 167.37-24.41L167.37-24.41Q167.17-24.85 167-25.22 166.83-25.59 166.83-25.93L166.83-25.93Q166.68-26.51 166.36-26.98 166.05-27.44 165.8-27.93L165.8-27.93Q165.66-28.22 165.58-28.47 165.51-28.71 165.41-28.96L165.41-28.96Q165.31-29.15 165.14-29.44 164.97-29.74 164.78-29.88L164.78-29.88Q164.68-30.32 164.44-30.66 164.19-31.01 164.09-31.45L164.09-31.45Q163.85-31.79 163.56-32.13L163.56-32.13Q163.36-32.86 163.02-33.47 162.68-34.08 162.38-34.77L162.38-34.77Q162.58-35.79 163.51-36.04L163.51-36.04Q164-36.62 164.09-36.67 164.19-36.72 164.53-36.72L164.53-36.72Q164.83-36.96 165.12-37.13 165.41-37.3 165.8-37.21L165.8-37.21Q165.85-37.4 166.07-37.55 166.29-37.7 166.49-37.7L166.49-37.7Q166.78-37.7 167-37.4 167.22-37.11 167.46-36.96L167.46-36.96Q167.85-36.28 168.27-35.64 168.68-35.01 168.98-34.33L168.98-34.33Q169.32-33.64 169.59-32.96 169.86-32.28 170.39-31.64L170.39-31.64Q170.64-30.66 171.15-29.81 171.66-28.96 172-27.98L172-27.98Q172.25-27.39 172.57-26.83 172.88-26.27 173.13-25.63L173.13-25.63Q173.27-25.34 173.37-25.05 173.47-24.76 173.57-24.46L173.57-24.46Q173.66-24.22 173.76-23.83 173.86-23.44 174.01-23.19L174.01-23.19Q174.35-23.54 174.59-24.07L174.59-24.07Q174.93-24.76 175.3-25.37 175.67-25.98 175.96-26.66L175.96-26.66Q176.35-27.29 176.52-27.98 176.69-28.66 176.94-29.35L176.94-29.35Q177.03-29.59 177.16-29.83 177.28-30.08 177.38-30.37L177.38-30.37Q177.52-30.66 177.62-30.96 177.72-31.25 177.81-31.54L177.81-31.54Q178.16-32.47 178.57-33.37 178.99-34.28 179.43-35.21L179.43-35.21Q179.47-35.35 179.65-35.64 179.82-35.94 180.04-36.25 180.26-36.57 180.45-36.82 180.65-37.06 180.79-37.16L180.79-37.16Q180.89-37.26 181.11-37.28 181.33-37.3 181.48-37.35L181.48-37.35Q181.92-37.35 182.11-37.11L182.11-37.11Q182.7-36.87 182.99-36.77 183.28-36.67 183.43-36.33L183.43-36.33Q184.16-35.84 184.53-35.77 184.89-35.69 185.09-35.35L185.09-35.35Q185.63-35.01 185.72-34.86 185.82-34.72 185.92-34.57ZM189.92-6.74L189.92-6.74Q190.41-6.79 190.63-6.42 190.85-6.05 191.14-5.96L191.14-5.96Q191.58-5.37 191.75-5.2 191.92-5.03 191.87-4.64L191.87-4.64Q192.12-4.54 192.31-4.42 192.51-4.3 192.75-4.1L192.75-4.1Q192.9-3.81 192.9-3.47L192.9-3.47Q192.9-3.32 192.9-3.15 192.9-2.98 192.85-2.83L192.85-2.83Q192.61-2.59 192.36-2.37 192.12-2.15 191.92-1.86L191.92-1.86Q191.34-1.46 190.9-1.05 190.46-0.63 189.77-0.24L189.77-0.24Q189.48-0.05 189.24 0.15 188.99 0.34 188.6 0.49L188.6 0.49Q188.6 0.29 188.43 0.22 188.26 0.15 188.16 0.05L188.16 0.05Q188.16-0.54 187.48-0.78L187.48-0.78Q187.33-1.22 187.02-1.54 186.7-1.86 186.5-2.25L186.5-2.25Q186.5-2.54 186.38-2.69 186.26-2.83 186.16-2.98L186.16-2.98Q185.67-2.98 185.55-3.32 185.43-3.66 185.43-4.05L185.43-4.05Q185.53-4.44 185.67-4.59 185.82-4.74 185.92-4.98L185.92-4.98Q186.45-5.47 187.19-6.18 187.92-6.88 188.46-7.18L188.46-7.18Q188.55-7.28 188.82-7.3 189.09-7.32 189.24-7.32L189.24-7.32 189.77-7.32Q189.87-7.08 189.95-7.03 190.02-6.98 189.92-6.74ZM204.91-23.83L204.91-23.83Q205.2-24.51 205.37-24.68 205.54-24.85 205.54-25.24L205.54-25.24Q206.03-26.22 206.4-27.27 206.76-28.32 207.25-29.35L207.25-29.35Q207.69-30.42 208.01-31.47 208.33-32.52 208.77-33.59L208.77-33.59Q208.82-33.79 208.96-34.18 209.11-34.57 209.25-35.01 209.4-35.45 209.55-35.82 209.69-36.18 209.79-36.33L209.79-36.33Q209.89-36.47 209.96-36.6 210.04-36.72 210.08-36.87L210.08-36.87Q210.38-36.87 210.48-36.84 210.57-36.82 210.72-36.82L210.72-36.82Q211.06-36.82 211.13-36.74 211.21-36.67 211.35-36.57L211.35-36.57Q211.89-36.52 212.21-36.43 212.53-36.33 212.77-36.08L212.77-36.08Q213.45-35.64 213.87-35.55 214.28-35.45 214.53-35.11L214.53-35.11Q215.55-35.01 215.55-34.03L215.55-34.03Q215.31-33.35 214.99-32.69 214.67-32.03 214.43-31.4L214.43-31.4Q213.99-29.98 213.45-28.69 212.92-27.39 212.28-26.12L212.28-26.12Q211.84-25.15 211.43-24.12 211.01-23.1 210.52-22.12L210.52-22.12Q210.28-21.29 210.04-20.75L210.04-20.75Q209.74-20.12 209.4-19.48 209.06-18.85 208.82-18.16L208.82-18.16Q208.57-17.92 208.42-17.6 208.28-17.29 208.08-16.99L208.08-16.99Q208.18-16.55 208.45-16.19 208.72-15.82 208.96-15.38L208.96-15.38Q209.01-15.04 209.16-14.72 209.3-14.4 209.45-14.06L209.45-14.06Q210.04-12.99 210.6-11.65 211.16-10.3 211.75-9.33L211.75-9.33Q212.38-8.35 212.7-7.57 213.01-6.79 213.5-5.81L213.5-5.81Q213.6-5.57 213.75-5.4 213.89-5.22 214.04-4.98L214.04-4.98 214.48-4.1Q214.67-3.66 214.94-3.25 215.21-2.83 215.46-2.39L215.46-2.39Q215.46-2.15 215.5-1.98 215.55-1.81 215.55-1.56L215.55-1.56Q215.21-0.98 215.09-0.98 214.97-0.98 214.82-0.88L214.82-0.88Q213.94-0.54 213.7 0.39L213.7 0.39Q213.45 0.49 213.21 0.54 212.97 0.59 212.97 0.93L212.97 0.93Q212.43 1.27 212.04 0.98L212.04 0.98Q211.79 1.22 211.6 1.54 211.4 1.86 211.06 2L211.06 2Q210.67 1.76 210.5 1.42 210.33 1.07 210.04 0.78L210.04 0.78Q209.99 0.44 209.84 0.2 209.69-0.05 209.65-0.34L209.65-0.34Q209.55-0.49 209.38-0.88 209.21-1.27 209.01-1.66 208.82-2.05 208.62-2.37 208.42-2.69 208.33-2.78L208.33-2.78Q207.94-3.56 207.67-4.35 207.4-5.13 207.01-5.96L207.01-5.96Q206.42-7.28 205.81-8.57 205.2-9.86 204.67-11.13L204.67-11.13Q204.42-11.08 204.13-10.62 203.83-10.16 203.59-9.57 203.35-8.98 203.15-8.42 202.96-7.86 202.91-7.57L202.91-7.57Q202.66-7.23 202.57-6.91 202.47-6.59 202.22-6.35L202.22-6.35Q201.98-5.52 201.64-4.76 201.3-4 200.91-3.22L200.91-3.22Q200.91-3.08 200.86-2.95 200.81-2.83 200.81-2.69L200.81-2.69Q200.27-1.81 199.73-0.9 199.2 0 198.76 0.98L198.76 0.98Q198.61 1.12 198.42 1.27 198.22 1.42 197.98 1.42L197.98 1.42Q197.63 1.42 197.34 1.15 197.05 0.88 196.8 0.73L196.8 0.73Q195.92 0.39 195.66 0.02 195.39-0.34 194.7-0.29L194.7-0.29Q194.46-0.63 194.36-0.59 194.26-0.54 194.12-0.54L194.12-0.54Q193.73-0.68 193.63-0.9 193.53-1.12 193.43-1.27L193.43-1.27Q193.43-1.76 193.39-1.9L193.39-1.9Q193.43-2.1 193.51-2.25 193.58-2.39 193.63-2.59L193.63-2.59Q194.17-3.27 194.44-4 194.7-4.74 195.24-5.37L195.24-5.37Q195.39-5.81 195.63-6.2 195.88-6.59 195.97-7.08L195.97-7.08Q196.32-7.52 196.56-7.96 196.8-8.4 196.95-8.94L196.95-8.94Q197.05-9.03 197.1-9.18 197.15-9.33 197.24-9.42L197.24-9.42Q197.39-9.86 197.58-10.28 197.78-10.69 197.88-11.13L197.88-11.13Q197.98-11.18 198.27-11.74 198.56-12.3 198.88-12.96 199.2-13.62 199.46-14.23 199.73-14.84 199.83-15.04L199.83-15.04Q200.17-15.72 200.51-16.21 200.86-16.7 201.1-17.48L201.1-17.48Q200.95-17.77 200.88-18.07 200.81-18.36 200.56-18.6L200.56-18.6Q200.56-19.14 200.22-19.65 199.88-20.17 199.78-20.7L199.78-20.7Q199.39-21.34 199.17-22.09 198.95-22.85 198.71-23.54L198.71-23.54Q198.66-23.73 198.56-23.93 198.46-24.12 198.37-24.32L198.37-24.32Q197.93-25.15 197.54-25.9 197.15-26.66 196.71-27.44L196.71-27.44Q196.46-27.93 196.07-28.59 195.68-29.25 195.44-29.74L195.44-29.74Q195.05-30.66 194.7-31.57 194.36-32.47 193.97-33.4L193.97-33.4Q193.97-33.79 193.83-34.23 193.68-34.67 193.68-35.06L193.68-35.06Q193.97-35.35 194.14-35.45 194.31-35.55 194.41-35.69L194.41-35.69Q194.8-35.69 195.14-36.04L195.14-36.04Q195.63-36.08 196.12-36.21 196.61-36.33 197.05-36.62L197.05-36.62Q197.54-36.62 197.83-36.79 198.12-36.96 198.51-36.96L198.51-36.96Q198.9-36.87 199-36.77 199.1-36.67 199.25-36.57L199.25-36.57Q200.66-33.4 202.08-30.22 203.49-27.05 204.91-23.83ZM239.62-34.57L239.62-34.57Q239.09-33.59 238.4-32.28 237.72-30.96 237.33-29.98L237.33-29.98Q237.18-29.64 237.06-29.32 236.94-29 236.79-28.66L236.79-28.66Q236.55-27.93 236.18-27.27 235.81-26.61 235.52-25.88L235.52-25.88Q235.08-24.9 234.62-23.9 234.15-22.9 233.72-21.83L233.72-21.83Q233.23-20.85 232.96-20.14 232.69-19.43 232.4-18.7 232.1-17.97 231.88-17.26 231.66-16.55 231.52-15.97L231.52-15.97Q231.08-15.19 230.79-14.79L230.79-14.79Q230.69-13.92 230.59-13.04 230.49-12.16 230.49-11.23L230.49-11.23Q230.49-10.79 230.57-10.38 230.64-9.96 230.69-9.52L230.69-9.52Q230.74-8.89 230.71-8.28 230.69-7.67 230.74-7.03L230.74-7.03Q230.79-5.81 230.86-4.61 230.93-3.42 230.98-2.15L230.98-2.15Q231.03-1.27 230.91-0.66 230.79-0.05 230.83 0.59L230.83 0.59Q230.69 0.68 230.52 0.73 230.35 0.78 230.2 0.88L230.2 0.88Q229.66 0.88 229.49 0.85 229.32 0.83 229.17 0.93L229.17 0.93Q228.73 0.63 228.69 0.66 228.64 0.68 228.59 0.68L228.59 0.68Q228 0.49 227.95 0.39 227.9 0.29 227.76 0.2L227.76 0.2Q227.22 0.2 226.88 0.34L226.88 0.34Q226.73 0.24 226.64 0.15 226.54 0.05 226.39-0.05L226.39-0.05Q225.95-0.1 225.66-0.17 225.37-0.24 225.17-0.34L225.17-0.34Q225.02-0.73 224.85-1.03 224.68-1.32 224.68-1.81L224.68-1.81Q224.68-2.2 224.78-2.54 224.88-2.88 224.93-3.27L224.93-3.27Q224.93-3.52 224.9-3.71 224.88-3.91 224.88-4.15L224.88-4.15Q224.88-4.39 224.98-4.79L224.98-4.79Q224.83-5.91 224.85-7.15 224.88-8.4 224.88-9.52L224.88-9.52Q224.88-10.64 224.68-11.62L224.68-11.62Q224.73-12.26 224.68-12.52 224.63-12.79 224.63-13.09L224.63-13.09Q224.63-13.33 224.68-13.6 224.73-13.87 224.73-14.11L224.73-14.11Q224.73-14.16 224.66-14.62 224.58-15.09 224.49-15.6 224.39-16.11 224.29-16.58 224.19-17.04 224.19-17.14L224.19-17.14Q223.71-18.02 223.46-18.8 223.22-19.58 222.92-20.12L222.92-20.12Q222.73-20.51 222.53-20.9 222.34-21.29 222.19-21.73L222.19-21.73Q222.09-21.97 222.02-22.27 221.95-22.56 221.85-22.8L221.85-22.8Q221.65-23.19 221.48-23.66 221.31-24.12 221.07-24.41L221.07-24.41Q220.87-24.85 220.7-25.22 220.53-25.59 220.53-25.93L220.53-25.93Q220.39-26.51 220.07-26.98 219.75-27.44 219.51-27.93L219.51-27.93Q219.36-28.22 219.29-28.47 219.21-28.71 219.12-28.96L219.12-28.96Q219.02-29.15 218.85-29.44 218.68-29.74 218.48-29.88L218.48-29.88Q218.38-30.32 218.14-30.66 217.89-31.01 217.8-31.45L217.8-31.45Q217.55-31.79 217.26-32.13L217.26-32.13Q217.06-32.86 216.72-33.47 216.38-34.08 216.09-34.77L216.09-34.77Q216.28-35.79 217.21-36.04L217.21-36.04Q217.7-36.62 217.8-36.67 217.89-36.72 218.24-36.72L218.24-36.72Q218.53-36.96 218.82-37.13 219.12-37.3 219.51-37.21L219.51-37.21Q219.56-37.4 219.77-37.55 219.99-37.7 220.19-37.7L220.19-37.7Q220.48-37.7 220.7-37.4 220.92-37.11 221.17-36.96L221.17-36.96Q221.56-36.28 221.97-35.64 222.39-35.01 222.68-34.33L222.68-34.33Q223.02-33.64 223.29-32.96 223.56-32.28 224.1-31.64L224.1-31.64Q224.34-30.66 224.85-29.81 225.37-28.96 225.71-27.98L225.71-27.98Q225.95-27.39 226.27-26.83 226.59-26.27 226.83-25.63L226.83-25.63Q226.98-25.34 227.07-25.05 227.17-24.76 227.27-24.46L227.27-24.46Q227.37-24.22 227.47-23.83 227.56-23.44 227.71-23.19L227.71-23.19Q228.05-23.54 228.3-24.07L228.3-24.07Q228.64-24.76 229-25.37 229.37-25.98 229.66-26.66L229.66-26.66Q230.05-27.29 230.22-27.98 230.39-28.66 230.64-29.35L230.64-29.35Q230.74-29.59 230.86-29.83 230.98-30.08 231.08-30.37L231.08-30.37Q231.23-30.66 231.32-30.96 231.42-31.25 231.52-31.54L231.52-31.54Q231.86-32.47 232.27-33.37 232.69-34.28 233.13-35.21L233.13-35.21Q233.18-35.35 233.35-35.64 233.52-35.94 233.74-36.25 233.96-36.57 234.15-36.82 234.35-37.06 234.5-37.16L234.5-37.16Q234.59-37.26 234.81-37.28 235.03-37.3 235.18-37.35L235.18-37.35Q235.62-37.35 235.81-37.11L235.81-37.11Q236.4-36.87 236.69-36.77 236.99-36.67 237.13-36.33L237.13-36.33Q237.87-35.84 238.23-35.77 238.6-35.69 238.79-35.35L238.79-35.35Q239.33-35.01 239.43-34.86 239.53-34.72 239.62-34.57ZM257.3-37.26L257.3-37.26Q257.35-37.11 257.76-36.91 258.18-36.72 258.27-36.72L258.27-36.72Q258.96-36.82 259.08-36.69 259.2-36.57 259.35-36.43L259.35-36.43Q259.54-36.52 259.66-36.65 259.79-36.77 260.03-36.77L260.03-36.77Q260.28-36.62 260.35-36.35 260.42-36.08 260.57-35.84L260.57-35.84Q260.52-35.21 260.57-35.03 260.62-34.86 260.62-34.67L260.62-34.67Q260.62-33.94 260.18-33.08 259.74-32.23 259.54-31.49L259.54-31.49Q259.3-31.25 259.23-30.96 259.15-30.66 258.96-30.42L258.96-30.42Q258.81-29.93 258.52-29.57 258.22-29.2 258.13-28.71L258.13-28.71Q258.08-28.66 257.91-28.37 257.74-28.08 257.54-27.73 257.35-27.39 257.17-27.05 257-26.71 256.95-26.61L256.95-26.61Q256.81-26.37 256.74-26.15 256.66-25.93 256.52-25.73L256.52-25.73Q256.42-25.44 256.2-25.02 255.98-24.61 255.71-24.17 255.44-23.73 255.25-23.32 255.05-22.9 255.05-22.71L255.05-22.71Q254.71-22.31 254.66-21.83L254.66-21.83Q253.34-19.34 252.32-16.72 251.29-14.11 250.12-11.57L250.12-11.57Q250.02-11.13 250-11.04 249.97-10.94 249.87-10.89L249.87-10.89Q249.73-10.55 249.53-10.23 249.34-9.91 249.24-9.57L249.24-9.57Q249.04-9.03 248.92-8.57 248.8-8.11 248.46-7.62L248.46-7.62Q248.41-7.32 248.26-7.06 248.12-6.79 248.17-6.49L248.17-6.49Q248.31-6.35 248.63-6.32 248.95-6.3 249.14-6.3L249.14-6.3Q249.44-6.3 249.73-6.32 250.02-6.35 250.31-6.35L250.31-6.35Q250.61-6.35 250.85-6.32 251.1-6.3 251.34-6.3L251.34-6.3 252.56-6.3Q252.76-6.3 252.93-6.27 253.1-6.25 253.24-6.25L253.24-6.25Q253.78-6.25 254.39-6.3 255-6.35 255.59-6.35L255.59-6.35Q255.93-6.35 256.32-6.37 256.71-6.4 257.1-6.3L257.1-6.3Q257.25-6.25 257.32-6.15 257.39-6.05 257.64-6.15L257.64-6.15Q258.08-5.71 258.18-5.62 258.27-5.52 258.37-5.42L258.37-5.42Q258.37-5.22 258.4-5.1 258.42-4.98 258.42-4.83L258.42-4.83Q258.42-4.3 258.52-4.1L258.52-4.1Q258.22-3.66 258.32-3.47L258.32-3.47 258.08-2.93Q258.08-2.69 257.98-2.42 257.88-2.15 257.98-1.9L257.98-1.9Q257.74-1.51 257.66-1.05 257.59-0.59 257.35-0.2L257.35-0.2Q256.95-0.05 256.56-0.07 256.17-0.1 255.78 0L255.78 0Q255.54-0.1 255.1-0.1L255.1-0.1Q254.71-0.1 254.34-0.05 253.98 0 253.59 0L253.59 0Q253.44 0 253.29-0.02 253.15-0.05 253-0.05L253-0.05Q252.46 0.05 252.44 0 252.41-0.05 252.32-0.05L252.32-0.05Q251.78-0.05 251.24-0.02 250.7 0 250.17 0L250.17 0Q249.97 0 249.83 0.05 249.68 0.1 249.53 0.1L249.53 0.1Q249.39 0.1 249.24 0.05 249.09 0 248.95 0L248.95 0Q248.7 0 248.41 0.05 248.12 0.1 247.82 0.1L247.82 0.1Q247.68 0.1 247.53 0.07 247.38 0.05 247.24 0.05L247.24 0.05Q246.99 0.05 246.75 0.15 246.51 0.24 246.21 0.15L246.21 0.15 245.53 0.24Q244.75 0.24 243.99 0.34 243.23 0.44 242.45 0.44L242.45 0.44Q242.01 0.44 241.87 0.39L241.87 0.39Q241.62 0.2 241.28 0.15 240.94 0.1 240.65-0.05L240.65-0.05Q240.6-0.44 240.3-0.63 240.01-0.83 239.77-1.07L239.77-1.07Q239.82-1.66 239.67-1.81L239.67-1.81Q239.72-2.59 239.38-2.83L239.38-2.83Q239.43-3.27 239.72-3.66 240.01-4.05 240.06-4.49L240.06-4.49Q240.45-4.88 240.55-5.08 240.65-5.27 240.65-5.52L240.65-5.52Q240.94-5.86 241.21-6.37 241.48-6.88 241.72-7.47 241.96-8.06 242.16-8.62 242.36-9.18 242.5-9.62L242.5-9.62Q242.89-10.16 243.09-10.74 243.28-11.33 243.53-11.91L243.53-11.91Q243.92-12.6 244.04-12.92 244.16-13.23 244.41-13.48L244.41-13.48Q244.45-13.67 244.67-14.23 244.89-14.79 245.14-15.43 245.38-16.06 245.65-16.58 245.92-17.09 246.02-17.24L246.02-17.24Q246.07-17.48 246.21-17.72 246.36-17.97 246.36-18.21L246.36-18.21Q246.85-18.85 247.14-19.78 247.43-20.7 247.78-21.39L247.78-21.39Q248.12-22.12 248.51-22.83 248.9-23.54 249.29-24.27L249.29-24.27Q250.8-27.2 252.32-30.18L252.32-30.18Q252.22-30.42 251.9-30.42 251.58-30.42 251.39-30.57L251.39-30.57Q251-30.47 250.66-30.52 250.31-30.57 249.92-30.57L249.92-30.57Q249-30.76 248.39-30.74 247.78-30.71 247.19-30.71L247.19-30.71Q246.9-30.71 246.58-30.76 246.26-30.81 245.97-30.81L245.97-30.81Q245.24-30.81 244.48-30.71 243.72-30.62 243.04-30.47L243.04-30.47Q242.6-30.57 242.14-30.57 241.67-30.57 241.28-30.66L241.28-30.66Q241.09-31.4 241.18-31.49L241.18-31.49Q241.09-31.64 240.96-31.76 240.84-31.88 240.74-32.03L240.74-32.03Q240.79-32.47 240.67-32.59 240.55-32.71 240.45-32.96L240.45-32.96Q240.45-33.3 240.43-33.62 240.4-33.94 240.5-34.28L240.5-34.28Q240.4-34.47 240.26-34.59 240.11-34.72 240.01-34.86L240.01-34.86Q240.06-35.11 240.04-35.28 240.01-35.45 240.06-35.64L240.06-35.64Q240.35-35.89 240.7-36.01 241.04-36.13 241.23-36.43L241.23-36.43Q241.87-36.62 242.53-36.67 243.19-36.72 243.82-36.72L243.82-36.72Q244.5-36.72 245.11-36.69 245.72-36.67 246.31-36.62L246.31-36.62Q246.75-36.62 247.12-36.5 247.48-36.38 247.87-36.33L247.87-36.33Q248.12-36.28 248.36-36.3 248.61-36.33 248.85-36.33L248.85-36.33Q249.68-36.33 250.53-36.3 251.39-36.28 252.22-36.28L252.22-36.28Q252.9-36.28 253.49-36.28 254.07-36.28 254.66-36.38L254.66-36.38Q254.86-36.57 254.95-36.77 255.05-36.96 255.15-37.16L255.15-37.16Q255.59-37.16 255.73-37.13 255.88-37.11 255.98-37.11L255.98-37.11 256.56-36.87Q256.76-36.87 257-36.94 257.25-37.01 257.3-37.26Z"
                                 opacity="1"
                                 transform="matrix(1,0,0,1,0,0)"
                                 fill="#883d1a"
                                 class="undefined-text-0"
                                 data-fill-palette-color="quaternary"
                                 id="text-0" />
                            </svg>
                          </g>
                        </svg>
                      </g>
                    </svg>
                  </g>
                </svg>
              </g>
              <g
                 id="g21" />
            </svg>
          </g>
          <defs
             id="defs27" />
        </svg>
        <rect
           width="395.52"
           height="96.17175962640414"
           fill="none"
           stroke="none"
           visibility="hidden"
           id="rect31" />
      </g>
    </svg>
  </g>
</svg>
